<?xml version="1.0" encoding="utf-8" standalone="no"?>
<!DOCTYPE svg PUBLIC "-//W3C//DTD SVG 1.1//EN"
  "http://www.w3.org/Graphics/SVG/1.1/DTD/svg11.dtd">
<!-- Created with matplotlib (https://matplotlib.org/) -->
<svg height="635.189641pt" version="1.1" viewBox="0 0 1012.25875 635.189641" width="1012.25875pt" xmlns="http://www.w3.org/2000/svg" xmlns:xlink="http://www.w3.org/1999/xlink">
 <defs>
  <style type="text/css">
*{stroke-linecap:butt;stroke-linejoin:round;}
  </style>
 </defs>
 <g id="figure_1">
  <g id="patch_1">
   <path d="M 0 635.189641 
L 1012.25875 635.189641 
L 1012.25875 0 
L 0 0 
z
" style="fill:#ffffff;"/>
  </g>
  <g id="axes_1">
   <g id="patch_2">
    <path d="M 37.69625 344.019141 
L 818.89625 344.019141 
L 818.89625 11.379141 
L 37.69625 11.379141 
z
" style="fill:#eaeaf2;"/>
   </g>
   <g id="matplotlib.axis_1">
    <g id="xtick_1">
     <g id="line2d_1">
      <path clip-path="url(#p8c1c07fa8f)" d="M 114.980742 344.019141 
L 114.980742 11.379141 
" style="fill:none;stroke:#ffffff;stroke-linecap:round;"/>
     </g>
     <g id="text_1">
      <!-- barcode01_qc -->
      <defs>
       <path d="M 48.6875 27.296875 
Q 48.6875 37.203125 44.609375 42.84375 
Q 40.53125 48.484375 33.40625 48.484375 
Q 26.265625 48.484375 22.1875 42.84375 
Q 18.109375 37.203125 18.109375 27.296875 
Q 18.109375 17.390625 22.1875 11.75 
Q 26.265625 6.109375 33.40625 6.109375 
Q 40.53125 6.109375 44.609375 11.75 
Q 48.6875 17.390625 48.6875 27.296875 
z
M 18.109375 46.390625 
Q 20.953125 51.265625 25.265625 53.625 
Q 29.59375 56 35.59375 56 
Q 45.5625 56 51.78125 48.09375 
Q 58.015625 40.1875 58.015625 27.296875 
Q 58.015625 14.40625 51.78125 6.484375 
Q 45.5625 -1.421875 35.59375 -1.421875 
Q 29.59375 -1.421875 25.265625 0.953125 
Q 20.953125 3.328125 18.109375 8.203125 
L 18.109375 0 
L 9.078125 0 
L 9.078125 75.984375 
L 18.109375 75.984375 
z
" id="DejaVuSans-98"/>
       <path d="M 34.28125 27.484375 
Q 23.390625 27.484375 19.1875 25 
Q 14.984375 22.515625 14.984375 16.5 
Q 14.984375 11.71875 18.140625 8.90625 
Q 21.296875 6.109375 26.703125 6.109375 
Q 34.1875 6.109375 38.703125 11.40625 
Q 43.21875 16.703125 43.21875 25.484375 
L 43.21875 27.484375 
z
M 52.203125 31.203125 
L 52.203125 0 
L 43.21875 0 
L 43.21875 8.296875 
Q 40.140625 3.328125 35.546875 0.953125 
Q 30.953125 -1.421875 24.3125 -1.421875 
Q 15.921875 -1.421875 10.953125 3.296875 
Q 6 8.015625 6 15.921875 
Q 6 25.140625 12.171875 29.828125 
Q 18.359375 34.515625 30.609375 34.515625 
L 43.21875 34.515625 
L 43.21875 35.40625 
Q 43.21875 41.609375 39.140625 45 
Q 35.0625 48.390625 27.6875 48.390625 
Q 23 48.390625 18.546875 47.265625 
Q 14.109375 46.140625 10.015625 43.890625 
L 10.015625 52.203125 
Q 14.9375 54.109375 19.578125 55.046875 
Q 24.21875 56 28.609375 56 
Q 40.484375 56 46.34375 49.84375 
Q 52.203125 43.703125 52.203125 31.203125 
z
" id="DejaVuSans-97"/>
       <path d="M 41.109375 46.296875 
Q 39.59375 47.171875 37.8125 47.578125 
Q 36.03125 48 33.890625 48 
Q 26.265625 48 22.1875 43.046875 
Q 18.109375 38.09375 18.109375 28.8125 
L 18.109375 0 
L 9.078125 0 
L 9.078125 54.6875 
L 18.109375 54.6875 
L 18.109375 46.1875 
Q 20.953125 51.171875 25.484375 53.578125 
Q 30.03125 56 36.53125 56 
Q 37.453125 56 38.578125 55.875 
Q 39.703125 55.765625 41.0625 55.515625 
z
" id="DejaVuSans-114"/>
       <path d="M 48.78125 52.59375 
L 48.78125 44.1875 
Q 44.96875 46.296875 41.140625 47.34375 
Q 37.3125 48.390625 33.40625 48.390625 
Q 24.65625 48.390625 19.8125 42.84375 
Q 14.984375 37.3125 14.984375 27.296875 
Q 14.984375 17.28125 19.8125 11.734375 
Q 24.65625 6.203125 33.40625 6.203125 
Q 37.3125 6.203125 41.140625 7.25 
Q 44.96875 8.296875 48.78125 10.40625 
L 48.78125 2.09375 
Q 45.015625 0.34375 40.984375 -0.53125 
Q 36.96875 -1.421875 32.421875 -1.421875 
Q 20.0625 -1.421875 12.78125 6.34375 
Q 5.515625 14.109375 5.515625 27.296875 
Q 5.515625 40.671875 12.859375 48.328125 
Q 20.21875 56 33.015625 56 
Q 37.15625 56 41.109375 55.140625 
Q 45.0625 54.296875 48.78125 52.59375 
z
" id="DejaVuSans-99"/>
       <path d="M 30.609375 48.390625 
Q 23.390625 48.390625 19.1875 42.75 
Q 14.984375 37.109375 14.984375 27.296875 
Q 14.984375 17.484375 19.15625 11.84375 
Q 23.34375 6.203125 30.609375 6.203125 
Q 37.796875 6.203125 41.984375 11.859375 
Q 46.1875 17.53125 46.1875 27.296875 
Q 46.1875 37.015625 41.984375 42.703125 
Q 37.796875 48.390625 30.609375 48.390625 
z
M 30.609375 56 
Q 42.328125 56 49.015625 48.375 
Q 55.71875 40.765625 55.71875 27.296875 
Q 55.71875 13.875 49.015625 6.21875 
Q 42.328125 -1.421875 30.609375 -1.421875 
Q 18.84375 -1.421875 12.171875 6.21875 
Q 5.515625 13.875 5.515625 27.296875 
Q 5.515625 40.765625 12.171875 48.375 
Q 18.84375 56 30.609375 56 
z
" id="DejaVuSans-111"/>
       <path d="M 45.40625 46.390625 
L 45.40625 75.984375 
L 54.390625 75.984375 
L 54.390625 0 
L 45.40625 0 
L 45.40625 8.203125 
Q 42.578125 3.328125 38.25 0.953125 
Q 33.9375 -1.421875 27.875 -1.421875 
Q 17.96875 -1.421875 11.734375 6.484375 
Q 5.515625 14.40625 5.515625 27.296875 
Q 5.515625 40.1875 11.734375 48.09375 
Q 17.96875 56 27.875 56 
Q 33.9375 56 38.25 53.625 
Q 42.578125 51.265625 45.40625 46.390625 
z
M 14.796875 27.296875 
Q 14.796875 17.390625 18.875 11.75 
Q 22.953125 6.109375 30.078125 6.109375 
Q 37.203125 6.109375 41.296875 11.75 
Q 45.40625 17.390625 45.40625 27.296875 
Q 45.40625 37.203125 41.296875 42.84375 
Q 37.203125 48.484375 30.078125 48.484375 
Q 22.953125 48.484375 18.875 42.84375 
Q 14.796875 37.203125 14.796875 27.296875 
z
" id="DejaVuSans-100"/>
       <path d="M 56.203125 29.59375 
L 56.203125 25.203125 
L 14.890625 25.203125 
Q 15.484375 15.921875 20.484375 11.0625 
Q 25.484375 6.203125 34.421875 6.203125 
Q 39.59375 6.203125 44.453125 7.46875 
Q 49.3125 8.734375 54.109375 11.28125 
L 54.109375 2.78125 
Q 49.265625 0.734375 44.1875 -0.34375 
Q 39.109375 -1.421875 33.890625 -1.421875 
Q 20.796875 -1.421875 13.15625 6.1875 
Q 5.515625 13.8125 5.515625 26.8125 
Q 5.515625 40.234375 12.765625 48.109375 
Q 20.015625 56 32.328125 56 
Q 43.359375 56 49.78125 48.890625 
Q 56.203125 41.796875 56.203125 29.59375 
z
M 47.21875 32.234375 
Q 47.125 39.59375 43.09375 43.984375 
Q 39.0625 48.390625 32.421875 48.390625 
Q 24.90625 48.390625 20.390625 44.140625 
Q 15.875 39.890625 15.1875 32.171875 
z
" id="DejaVuSans-101"/>
       <path d="M 31.78125 66.40625 
Q 24.171875 66.40625 20.328125 58.90625 
Q 16.5 51.421875 16.5 36.375 
Q 16.5 21.390625 20.328125 13.890625 
Q 24.171875 6.390625 31.78125 6.390625 
Q 39.453125 6.390625 43.28125 13.890625 
Q 47.125 21.390625 47.125 36.375 
Q 47.125 51.421875 43.28125 58.90625 
Q 39.453125 66.40625 31.78125 66.40625 
z
M 31.78125 74.21875 
Q 44.046875 74.21875 50.515625 64.515625 
Q 56.984375 54.828125 56.984375 36.375 
Q 56.984375 17.96875 50.515625 8.265625 
Q 44.046875 -1.421875 31.78125 -1.421875 
Q 19.53125 -1.421875 13.0625 8.265625 
Q 6.59375 17.96875 6.59375 36.375 
Q 6.59375 54.828125 13.0625 64.515625 
Q 19.53125 74.21875 31.78125 74.21875 
z
" id="DejaVuSans-48"/>
       <path d="M 12.40625 8.296875 
L 28.515625 8.296875 
L 28.515625 63.921875 
L 10.984375 60.40625 
L 10.984375 69.390625 
L 28.421875 72.90625 
L 38.28125 72.90625 
L 38.28125 8.296875 
L 54.390625 8.296875 
L 54.390625 0 
L 12.40625 0 
z
" id="DejaVuSans-49"/>
       <path d="M 50.984375 -16.609375 
L 50.984375 -23.578125 
L -0.984375 -23.578125 
L -0.984375 -16.609375 
z
" id="DejaVuSans-95"/>
       <path d="M 14.796875 27.296875 
Q 14.796875 17.390625 18.875 11.75 
Q 22.953125 6.109375 30.078125 6.109375 
Q 37.203125 6.109375 41.296875 11.75 
Q 45.40625 17.390625 45.40625 27.296875 
Q 45.40625 37.203125 41.296875 42.84375 
Q 37.203125 48.484375 30.078125 48.484375 
Q 22.953125 48.484375 18.875 42.84375 
Q 14.796875 37.203125 14.796875 27.296875 
z
M 45.40625 8.203125 
Q 42.578125 3.328125 38.25 0.953125 
Q 33.9375 -1.421875 27.875 -1.421875 
Q 17.96875 -1.421875 11.734375 6.484375 
Q 5.515625 14.40625 5.515625 27.296875 
Q 5.515625 40.1875 11.734375 48.09375 
Q 17.96875 56 27.875 56 
Q 33.9375 56 38.25 53.625 
Q 42.578125 51.265625 45.40625 46.390625 
L 45.40625 54.6875 
L 54.390625 54.6875 
L 54.390625 -20.796875 
L 45.40625 -20.796875 
z
" id="DejaVuSans-113"/>
      </defs>
      <g style="fill:#262626;" transform="translate(117.863086 430.577578)rotate(-90)scale(0.11 -0.11)">
       <use xlink:href="#DejaVuSans-98"/>
       <use x="63.476562" xlink:href="#DejaVuSans-97"/>
       <use x="124.755859" xlink:href="#DejaVuSans-114"/>
       <use x="163.619141" xlink:href="#DejaVuSans-99"/>
       <use x="218.599609" xlink:href="#DejaVuSans-111"/>
       <use x="279.78125" xlink:href="#DejaVuSans-100"/>
       <use x="343.257812" xlink:href="#DejaVuSans-101"/>
       <use x="404.78125" xlink:href="#DejaVuSans-48"/>
       <use x="468.404297" xlink:href="#DejaVuSans-49"/>
       <use x="532.027344" xlink:href="#DejaVuSans-95"/>
       <use x="582.027344" xlink:href="#DejaVuSans-113"/>
       <use x="645.503906" xlink:href="#DejaVuSans-99"/>
      </g>
     </g>
    </g>
    <g id="xtick_2">
     <g id="line2d_2">
      <path clip-path="url(#p8c1c07fa8f)" d="M 219.419245 344.019141 
L 219.419245 11.379141 
" style="fill:none;stroke:#ffffff;stroke-linecap:round;"/>
     </g>
     <g id="text_2">
      <!-- barcode02_qc -->
      <defs>
       <path d="M 19.1875 8.296875 
L 53.609375 8.296875 
L 53.609375 0 
L 7.328125 0 
L 7.328125 8.296875 
Q 12.9375 14.109375 22.625 23.890625 
Q 32.328125 33.6875 34.8125 36.53125 
Q 39.546875 41.84375 41.421875 45.53125 
Q 43.3125 49.21875 43.3125 52.78125 
Q 43.3125 58.59375 39.234375 62.25 
Q 35.15625 65.921875 28.609375 65.921875 
Q 23.96875 65.921875 18.8125 64.3125 
Q 13.671875 62.703125 7.8125 59.421875 
L 7.8125 69.390625 
Q 13.765625 71.78125 18.9375 73 
Q 24.125 74.21875 28.421875 74.21875 
Q 39.75 74.21875 46.484375 68.546875 
Q 53.21875 62.890625 53.21875 53.421875 
Q 53.21875 48.921875 51.53125 44.890625 
Q 49.859375 40.875 45.40625 35.40625 
Q 44.1875 33.984375 37.640625 27.21875 
Q 31.109375 20.453125 19.1875 8.296875 
z
" id="DejaVuSans-50"/>
      </defs>
      <g style="fill:#ff0000;" transform="translate(222.301588 430.577578)rotate(-90)scale(0.11 -0.11)">
       <use xlink:href="#DejaVuSans-98"/>
       <use x="63.476562" xlink:href="#DejaVuSans-97"/>
       <use x="124.755859" xlink:href="#DejaVuSans-114"/>
       <use x="163.619141" xlink:href="#DejaVuSans-99"/>
       <use x="218.599609" xlink:href="#DejaVuSans-111"/>
       <use x="279.78125" xlink:href="#DejaVuSans-100"/>
       <use x="343.257812" xlink:href="#DejaVuSans-101"/>
       <use x="404.78125" xlink:href="#DejaVuSans-48"/>
       <use x="468.404297" xlink:href="#DejaVuSans-50"/>
       <use x="532.027344" xlink:href="#DejaVuSans-95"/>
       <use x="582.027344" xlink:href="#DejaVuSans-113"/>
       <use x="645.503906" xlink:href="#DejaVuSans-99"/>
      </g>
     </g>
    </g>
    <g id="xtick_3">
     <g id="line2d_3">
      <path clip-path="url(#p8c1c07fa8f)" d="M 323.857747 344.019141 
L 323.857747 11.379141 
" style="fill:none;stroke:#ffffff;stroke-linecap:round;"/>
     </g>
     <g id="text_3">
      <!-- barcode03_qc -->
      <defs>
       <path d="M 40.578125 39.3125 
Q 47.65625 37.796875 51.625 33 
Q 55.609375 28.21875 55.609375 21.1875 
Q 55.609375 10.40625 48.1875 4.484375 
Q 40.765625 -1.421875 27.09375 -1.421875 
Q 22.515625 -1.421875 17.65625 -0.515625 
Q 12.796875 0.390625 7.625 2.203125 
L 7.625 11.71875 
Q 11.71875 9.328125 16.59375 8.109375 
Q 21.484375 6.890625 26.8125 6.890625 
Q 36.078125 6.890625 40.9375 10.546875 
Q 45.796875 14.203125 45.796875 21.1875 
Q 45.796875 27.640625 41.28125 31.265625 
Q 36.765625 34.90625 28.71875 34.90625 
L 20.21875 34.90625 
L 20.21875 43.015625 
L 29.109375 43.015625 
Q 36.375 43.015625 40.234375 45.921875 
Q 44.09375 48.828125 44.09375 54.296875 
Q 44.09375 59.90625 40.109375 62.90625 
Q 36.140625 65.921875 28.71875 65.921875 
Q 24.65625 65.921875 20.015625 65.03125 
Q 15.375 64.15625 9.8125 62.3125 
L 9.8125 71.09375 
Q 15.4375 72.65625 20.34375 73.4375 
Q 25.25 74.21875 29.59375 74.21875 
Q 40.828125 74.21875 47.359375 69.109375 
Q 53.90625 64.015625 53.90625 55.328125 
Q 53.90625 49.265625 50.4375 45.09375 
Q 46.96875 40.921875 40.578125 39.3125 
z
" id="DejaVuSans-51"/>
      </defs>
      <g style="fill:#ff0000;" transform="translate(326.740091 430.577578)rotate(-90)scale(0.11 -0.11)">
       <use xlink:href="#DejaVuSans-98"/>
       <use x="63.476562" xlink:href="#DejaVuSans-97"/>
       <use x="124.755859" xlink:href="#DejaVuSans-114"/>
       <use x="163.619141" xlink:href="#DejaVuSans-99"/>
       <use x="218.599609" xlink:href="#DejaVuSans-111"/>
       <use x="279.78125" xlink:href="#DejaVuSans-100"/>
       <use x="343.257812" xlink:href="#DejaVuSans-101"/>
       <use x="404.78125" xlink:href="#DejaVuSans-48"/>
       <use x="468.404297" xlink:href="#DejaVuSans-51"/>
       <use x="532.027344" xlink:href="#DejaVuSans-95"/>
       <use x="582.027344" xlink:href="#DejaVuSans-113"/>
       <use x="645.503906" xlink:href="#DejaVuSans-99"/>
      </g>
     </g>
    </g>
    <g id="xtick_4">
     <g id="line2d_4">
      <path clip-path="url(#p8c1c07fa8f)" d="M 428.29625 344.019141 
L 428.29625 11.379141 
" style="fill:none;stroke:#ffffff;stroke-linecap:round;"/>
     </g>
     <g id="text_4">
      <!-- barcode04_qc -->
      <defs>
       <path d="M 37.796875 64.3125 
L 12.890625 25.390625 
L 37.796875 25.390625 
z
M 35.203125 72.90625 
L 47.609375 72.90625 
L 47.609375 25.390625 
L 58.015625 25.390625 
L 58.015625 17.1875 
L 47.609375 17.1875 
L 47.609375 0 
L 37.796875 0 
L 37.796875 17.1875 
L 4.890625 17.1875 
L 4.890625 26.703125 
z
" id="DejaVuSans-52"/>
      </defs>
      <g style="fill:#ff0000;" transform="translate(431.178594 430.577578)rotate(-90)scale(0.11 -0.11)">
       <use xlink:href="#DejaVuSans-98"/>
       <use x="63.476562" xlink:href="#DejaVuSans-97"/>
       <use x="124.755859" xlink:href="#DejaVuSans-114"/>
       <use x="163.619141" xlink:href="#DejaVuSans-99"/>
       <use x="218.599609" xlink:href="#DejaVuSans-111"/>
       <use x="279.78125" xlink:href="#DejaVuSans-100"/>
       <use x="343.257812" xlink:href="#DejaVuSans-101"/>
       <use x="404.78125" xlink:href="#DejaVuSans-48"/>
       <use x="468.404297" xlink:href="#DejaVuSans-52"/>
       <use x="532.027344" xlink:href="#DejaVuSans-95"/>
       <use x="582.027344" xlink:href="#DejaVuSans-113"/>
       <use x="645.503906" xlink:href="#DejaVuSans-99"/>
      </g>
     </g>
    </g>
    <g id="xtick_5">
     <g id="line2d_5">
      <path clip-path="url(#p8c1c07fa8f)" d="M 532.734753 344.019141 
L 532.734753 11.379141 
" style="fill:none;stroke:#ffffff;stroke-linecap:round;"/>
     </g>
     <g id="text_5">
      <!-- barcode05_qc -->
      <defs>
       <path d="M 10.796875 72.90625 
L 49.515625 72.90625 
L 49.515625 64.59375 
L 19.828125 64.59375 
L 19.828125 46.734375 
Q 21.96875 47.46875 24.109375 47.828125 
Q 26.265625 48.1875 28.421875 48.1875 
Q 40.625 48.1875 47.75 41.5 
Q 54.890625 34.8125 54.890625 23.390625 
Q 54.890625 11.625 47.5625 5.09375 
Q 40.234375 -1.421875 26.90625 -1.421875 
Q 22.3125 -1.421875 17.546875 -0.640625 
Q 12.796875 0.140625 7.71875 1.703125 
L 7.71875 11.625 
Q 12.109375 9.234375 16.796875 8.0625 
Q 21.484375 6.890625 26.703125 6.890625 
Q 35.15625 6.890625 40.078125 11.328125 
Q 45.015625 15.765625 45.015625 23.390625 
Q 45.015625 31 40.078125 35.4375 
Q 35.15625 39.890625 26.703125 39.890625 
Q 22.75 39.890625 18.8125 39.015625 
Q 14.890625 38.140625 10.796875 36.28125 
z
" id="DejaVuSans-53"/>
      </defs>
      <g style="fill:#262626;" transform="translate(535.617096 430.577578)rotate(-90)scale(0.11 -0.11)">
       <use xlink:href="#DejaVuSans-98"/>
       <use x="63.476562" xlink:href="#DejaVuSans-97"/>
       <use x="124.755859" xlink:href="#DejaVuSans-114"/>
       <use x="163.619141" xlink:href="#DejaVuSans-99"/>
       <use x="218.599609" xlink:href="#DejaVuSans-111"/>
       <use x="279.78125" xlink:href="#DejaVuSans-100"/>
       <use x="343.257812" xlink:href="#DejaVuSans-101"/>
       <use x="404.78125" xlink:href="#DejaVuSans-48"/>
       <use x="468.404297" xlink:href="#DejaVuSans-53"/>
       <use x="532.027344" xlink:href="#DejaVuSans-95"/>
       <use x="582.027344" xlink:href="#DejaVuSans-113"/>
       <use x="645.503906" xlink:href="#DejaVuSans-99"/>
      </g>
     </g>
    </g>
    <g id="xtick_6">
     <g id="line2d_6">
      <path clip-path="url(#p8c1c07fa8f)" d="M 637.173255 344.019141 
L 637.173255 11.379141 
" style="fill:none;stroke:#ffffff;stroke-linecap:round;"/>
     </g>
     <g id="text_6">
      <!-- barcode06_qc -->
      <defs>
       <path d="M 33.015625 40.375 
Q 26.375 40.375 22.484375 35.828125 
Q 18.609375 31.296875 18.609375 23.390625 
Q 18.609375 15.53125 22.484375 10.953125 
Q 26.375 6.390625 33.015625 6.390625 
Q 39.65625 6.390625 43.53125 10.953125 
Q 47.40625 15.53125 47.40625 23.390625 
Q 47.40625 31.296875 43.53125 35.828125 
Q 39.65625 40.375 33.015625 40.375 
z
M 52.59375 71.296875 
L 52.59375 62.3125 
Q 48.875 64.0625 45.09375 64.984375 
Q 41.3125 65.921875 37.59375 65.921875 
Q 27.828125 65.921875 22.671875 59.328125 
Q 17.53125 52.734375 16.796875 39.40625 
Q 19.671875 43.65625 24.015625 45.921875 
Q 28.375 48.1875 33.59375 48.1875 
Q 44.578125 48.1875 50.953125 41.515625 
Q 57.328125 34.859375 57.328125 23.390625 
Q 57.328125 12.15625 50.6875 5.359375 
Q 44.046875 -1.421875 33.015625 -1.421875 
Q 20.359375 -1.421875 13.671875 8.265625 
Q 6.984375 17.96875 6.984375 36.375 
Q 6.984375 53.65625 15.1875 63.9375 
Q 23.390625 74.21875 37.203125 74.21875 
Q 40.921875 74.21875 44.703125 73.484375 
Q 48.484375 72.75 52.59375 71.296875 
z
" id="DejaVuSans-54"/>
      </defs>
      <g style="fill:#262626;" transform="translate(640.055599 430.577578)rotate(-90)scale(0.11 -0.11)">
       <use xlink:href="#DejaVuSans-98"/>
       <use x="63.476562" xlink:href="#DejaVuSans-97"/>
       <use x="124.755859" xlink:href="#DejaVuSans-114"/>
       <use x="163.619141" xlink:href="#DejaVuSans-99"/>
       <use x="218.599609" xlink:href="#DejaVuSans-111"/>
       <use x="279.78125" xlink:href="#DejaVuSans-100"/>
       <use x="343.257812" xlink:href="#DejaVuSans-101"/>
       <use x="404.78125" xlink:href="#DejaVuSans-48"/>
       <use x="468.404297" xlink:href="#DejaVuSans-54"/>
       <use x="532.027344" xlink:href="#DejaVuSans-95"/>
       <use x="582.027344" xlink:href="#DejaVuSans-113"/>
       <use x="645.503906" xlink:href="#DejaVuSans-99"/>
      </g>
     </g>
    </g>
    <g id="xtick_7">
     <g id="line2d_7">
      <path clip-path="url(#p8c1c07fa8f)" d="M 741.611758 344.019141 
L 741.611758 11.379141 
" style="fill:none;stroke:#ffffff;stroke-linecap:round;"/>
     </g>
     <g id="text_7">
      <!-- barcode07_qc -->
      <defs>
       <path d="M 8.203125 72.90625 
L 55.078125 72.90625 
L 55.078125 68.703125 
L 28.609375 0 
L 18.3125 0 
L 43.21875 64.59375 
L 8.203125 64.59375 
z
" id="DejaVuSans-55"/>
      </defs>
      <g style="fill:#262626;" transform="translate(744.494102 430.577578)rotate(-90)scale(0.11 -0.11)">
       <use xlink:href="#DejaVuSans-98"/>
       <use x="63.476562" xlink:href="#DejaVuSans-97"/>
       <use x="124.755859" xlink:href="#DejaVuSans-114"/>
       <use x="163.619141" xlink:href="#DejaVuSans-99"/>
       <use x="218.599609" xlink:href="#DejaVuSans-111"/>
       <use x="279.78125" xlink:href="#DejaVuSans-100"/>
       <use x="343.257812" xlink:href="#DejaVuSans-101"/>
       <use x="404.78125" xlink:href="#DejaVuSans-48"/>
       <use x="468.404297" xlink:href="#DejaVuSans-55"/>
       <use x="532.027344" xlink:href="#DejaVuSans-95"/>
       <use x="582.027344" xlink:href="#DejaVuSans-113"/>
       <use x="645.503906" xlink:href="#DejaVuSans-99"/>
      </g>
     </g>
    </g>
   </g>
   <g id="matplotlib.axis_2">
    <g id="ytick_1">
     <g id="line2d_8">
      <path clip-path="url(#p8c1c07fa8f)" d="M 37.69625 344.019141 
L 818.89625 344.019141 
" style="fill:none;stroke:#ffffff;stroke-linecap:round;"/>
     </g>
     <g id="text_8">
      <!-- 0 -->
      <g style="fill:#262626;" transform="translate(21.1975 348.198281)scale(0.11 -0.11)">
       <use xlink:href="#DejaVuSans-48"/>
      </g>
     </g>
    </g>
    <g id="ytick_2">
     <g id="line2d_9">
      <path clip-path="url(#p8c1c07fa8f)" d="M 37.69625 277.491141 
L 818.89625 277.491141 
" style="fill:none;stroke:#ffffff;stroke-linecap:round;"/>
     </g>
     <g id="text_9">
      <!-- 20 -->
      <g style="fill:#262626;" transform="translate(14.19875 281.670281)scale(0.11 -0.11)">
       <use xlink:href="#DejaVuSans-50"/>
       <use x="63.623047" xlink:href="#DejaVuSans-48"/>
      </g>
     </g>
    </g>
    <g id="ytick_3">
     <g id="line2d_10">
      <path clip-path="url(#p8c1c07fa8f)" d="M 37.69625 210.963141 
L 818.89625 210.963141 
" style="fill:none;stroke:#ffffff;stroke-linecap:round;"/>
     </g>
     <g id="text_10">
      <!-- 40 -->
      <g style="fill:#262626;" transform="translate(14.19875 215.142281)scale(0.11 -0.11)">
       <use xlink:href="#DejaVuSans-52"/>
       <use x="63.623047" xlink:href="#DejaVuSans-48"/>
      </g>
     </g>
    </g>
    <g id="ytick_4">
     <g id="line2d_11">
      <path clip-path="url(#p8c1c07fa8f)" d="M 37.69625 144.435141 
L 818.89625 144.435141 
" style="fill:none;stroke:#ffffff;stroke-linecap:round;"/>
     </g>
     <g id="text_11">
      <!-- 60 -->
      <g style="fill:#262626;" transform="translate(14.19875 148.614281)scale(0.11 -0.11)">
       <use xlink:href="#DejaVuSans-54"/>
       <use x="63.623047" xlink:href="#DejaVuSans-48"/>
      </g>
     </g>
    </g>
    <g id="ytick_5">
     <g id="line2d_12">
      <path clip-path="url(#p8c1c07fa8f)" d="M 37.69625 77.907141 
L 818.89625 77.907141 
" style="fill:none;stroke:#ffffff;stroke-linecap:round;"/>
     </g>
     <g id="text_12">
      <!-- 80 -->
      <defs>
       <path d="M 31.78125 34.625 
Q 24.75 34.625 20.71875 30.859375 
Q 16.703125 27.09375 16.703125 20.515625 
Q 16.703125 13.921875 20.71875 10.15625 
Q 24.75 6.390625 31.78125 6.390625 
Q 38.8125 6.390625 42.859375 10.171875 
Q 46.921875 13.96875 46.921875 20.515625 
Q 46.921875 27.09375 42.890625 30.859375 
Q 38.875 34.625 31.78125 34.625 
z
M 21.921875 38.8125 
Q 15.578125 40.375 12.03125 44.71875 
Q 8.5 49.078125 8.5 55.328125 
Q 8.5 64.0625 14.71875 69.140625 
Q 20.953125 74.21875 31.78125 74.21875 
Q 42.671875 74.21875 48.875 69.140625 
Q 55.078125 64.0625 55.078125 55.328125 
Q 55.078125 49.078125 51.53125 44.71875 
Q 48 40.375 41.703125 38.8125 
Q 48.828125 37.15625 52.796875 32.3125 
Q 56.78125 27.484375 56.78125 20.515625 
Q 56.78125 9.90625 50.3125 4.234375 
Q 43.84375 -1.421875 31.78125 -1.421875 
Q 19.734375 -1.421875 13.25 4.234375 
Q 6.78125 9.90625 6.78125 20.515625 
Q 6.78125 27.484375 10.78125 32.3125 
Q 14.796875 37.15625 21.921875 38.8125 
z
M 18.3125 54.390625 
Q 18.3125 48.734375 21.84375 45.5625 
Q 25.390625 42.390625 31.78125 42.390625 
Q 38.140625 42.390625 41.71875 45.5625 
Q 45.3125 48.734375 45.3125 54.390625 
Q 45.3125 60.0625 41.71875 63.234375 
Q 38.140625 66.40625 31.78125 66.40625 
Q 25.390625 66.40625 21.84375 63.234375 
Q 18.3125 60.0625 18.3125 54.390625 
z
" id="DejaVuSans-56"/>
      </defs>
      <g style="fill:#262626;" transform="translate(14.19875 82.086281)scale(0.11 -0.11)">
       <use xlink:href="#DejaVuSans-56"/>
       <use x="63.623047" xlink:href="#DejaVuSans-48"/>
      </g>
     </g>
    </g>
    <g id="ytick_6">
     <g id="line2d_13">
      <path clip-path="url(#p8c1c07fa8f)" d="M 37.69625 11.379141 
L 818.89625 11.379141 
" style="fill:none;stroke:#ffffff;stroke-linecap:round;"/>
     </g>
     <g id="text_13">
      <!-- 100 -->
      <g style="fill:#262626;" transform="translate(7.2 15.558281)scale(0.11 -0.11)">
       <use xlink:href="#DejaVuSans-49"/>
       <use x="63.623047" xlink:href="#DejaVuSans-48"/>
       <use x="127.246094" xlink:href="#DejaVuSans-48"/>
      </g>
     </g>
    </g>
   </g>
   <g id="patch_3">
    <path clip-path="url(#p8c1c07fa8f)" d="M 73.205341 344.019141 
L 156.756143 344.019141 
L 156.756143 343.344233 
L 73.205341 343.344233 
z
" style="fill:#36aeff;stroke:#ffffff;stroke-linejoin:miter;"/>
   </g>
   <g id="patch_4">
    <path clip-path="url(#p8c1c07fa8f)" d="M 177.643844 344.019141 
L 261.194646 344.019141 
L 261.194646 344.019141 
L 177.643844 344.019141 
z
" style="fill:#36aeff;stroke:#f21616;stroke-linejoin:miter;"/>
   </g>
   <g id="patch_5">
    <path clip-path="url(#p8c1c07fa8f)" d="M 282.082346 344.019141 
L 365.633148 344.019141 
L 365.633148 344.019141 
L 282.082346 344.019141 
z
" style="fill:#36aeff;stroke:#f21616;stroke-linejoin:miter;"/>
   </g>
   <g id="patch_6">
    <path clip-path="url(#p8c1c07fa8f)" d="M 386.520849 344.019141 
L 470.071651 344.019141 
L 470.071651 344.019141 
L 386.520849 344.019141 
z
" style="fill:#36aeff;stroke:#f21616;stroke-linejoin:miter;"/>
   </g>
   <g id="patch_7">
    <path clip-path="url(#p8c1c07fa8f)" d="M 490.959352 344.019141 
L 574.510154 344.019141 
L 574.510154 344.019141 
L 490.959352 344.019141 
z
" style="fill:#36aeff;stroke:#ffffff;stroke-linejoin:miter;"/>
   </g>
   <g id="patch_8">
    <path clip-path="url(#p8c1c07fa8f)" d="M 595.397854 344.019141 
L 678.948656 344.019141 
L 678.948656 344.019141 
L 595.397854 344.019141 
z
" style="fill:#36aeff;stroke:#ffffff;stroke-linejoin:miter;"/>
   </g>
   <g id="patch_9">
    <path clip-path="url(#p8c1c07fa8f)" d="M 699.836357 344.019141 
L 783.387159 344.019141 
L 783.387159 344.019141 
L 699.836357 344.019141 
z
" style="fill:#36aeff;stroke:#ffffff;stroke-linejoin:miter;"/>
   </g>
   <g id="patch_10">
    <path clip-path="url(#p8c1c07fa8f)" d="M 73.205341 343.344233 
L 156.756143 343.344233 
L 156.756143 270.61867 
L 73.205341 270.61867 
z
" style="fill:#ffdc82;stroke:#ffffff;stroke-linejoin:miter;"/>
   </g>
   <g id="patch_11">
    <path clip-path="url(#p8c1c07fa8f)" d="M 177.643844 344.019141 
L 261.194646 344.019141 
L 261.194646 344.019141 
L 177.643844 344.019141 
z
" style="fill:#ffdc82;stroke:#f21616;stroke-linejoin:miter;"/>
   </g>
   <g id="patch_12">
    <path clip-path="url(#p8c1c07fa8f)" d="M 282.082346 344.019141 
L 365.633148 344.019141 
L 365.633148 344.019141 
L 282.082346 344.019141 
z
" style="fill:#ffdc82;stroke:#f21616;stroke-linejoin:miter;"/>
   </g>
   <g id="patch_13">
    <path clip-path="url(#p8c1c07fa8f)" d="M 386.520849 344.019141 
L 470.071651 344.019141 
L 470.071651 344.019141 
L 386.520849 344.019141 
z
" style="fill:#ffdc82;stroke:#f21616;stroke-linejoin:miter;"/>
   </g>
   <g id="patch_14">
    <path clip-path="url(#p8c1c07fa8f)" d="M 490.959352 344.019141 
L 574.510154 344.019141 
L 574.510154 344.019141 
L 490.959352 344.019141 
z
" style="fill:#ffdc82;stroke:#ffffff;stroke-linejoin:miter;"/>
   </g>
   <g id="patch_15">
    <path clip-path="url(#p8c1c07fa8f)" d="M 595.397854 344.019141 
L 678.948656 344.019141 
L 678.948656 344.019141 
L 595.397854 344.019141 
z
" style="fill:#ffdc82;stroke:#ffffff;stroke-linejoin:miter;"/>
   </g>
   <g id="patch_16">
    <path clip-path="url(#p8c1c07fa8f)" d="M 699.836357 344.019141 
L 783.387159 344.019141 
L 783.387159 344.019141 
L 699.836357 344.019141 
z
" style="fill:#ffdc82;stroke:#ffffff;stroke-linejoin:miter;"/>
   </g>
   <g id="patch_17">
    <path clip-path="url(#p8c1c07fa8f)" d="M 73.205341 270.61867 
L 156.756143 270.61867 
L 156.756143 237.126956 
L 73.205341 237.126956 
z
" style="fill:#bf63be;stroke:#ffffff;stroke-linejoin:miter;"/>
   </g>
   <g id="patch_18">
    <path clip-path="url(#p8c1c07fa8f)" d="M 177.643844 344.019141 
L 261.194646 344.019141 
L 261.194646 344.019141 
L 177.643844 344.019141 
z
" style="fill:#bf63be;stroke:#f21616;stroke-linejoin:miter;"/>
   </g>
   <g id="patch_19">
    <path clip-path="url(#p8c1c07fa8f)" d="M 282.082346 344.019141 
L 365.633148 344.019141 
L 365.633148 344.019141 
L 282.082346 344.019141 
z
" style="fill:#bf63be;stroke:#f21616;stroke-linejoin:miter;"/>
   </g>
   <g id="patch_20">
    <path clip-path="url(#p8c1c07fa8f)" d="M 386.520849 344.019141 
L 470.071651 344.019141 
L 470.071651 344.019141 
L 386.520849 344.019141 
z
" style="fill:#bf63be;stroke:#f21616;stroke-linejoin:miter;"/>
   </g>
   <g id="patch_21">
    <path clip-path="url(#p8c1c07fa8f)" d="M 490.959352 344.019141 
L 574.510154 344.019141 
L 574.510154 344.019141 
L 490.959352 344.019141 
z
" style="fill:#bf63be;stroke:#ffffff;stroke-linejoin:miter;"/>
   </g>
   <g id="patch_22">
    <path clip-path="url(#p8c1c07fa8f)" d="M 595.397854 344.019141 
L 678.948656 344.019141 
L 678.948656 344.019141 
L 595.397854 344.019141 
z
" style="fill:#bf63be;stroke:#ffffff;stroke-linejoin:miter;"/>
   </g>
   <g id="patch_23">
    <path clip-path="url(#p8c1c07fa8f)" d="M 699.836357 344.019141 
L 783.387159 344.019141 
L 783.387159 344.019141 
L 699.836357 344.019141 
z
" style="fill:#bf63be;stroke:#ffffff;stroke-linejoin:miter;"/>
   </g>
   <g id="patch_24">
    <path clip-path="url(#p8c1c07fa8f)" d="M 73.205341 237.126956 
L 156.756143 237.126956 
L 156.756143 205.660694 
L 73.205341 205.660694 
z
" style="fill:#ffa70f;stroke:#ffffff;stroke-linejoin:miter;"/>
   </g>
   <g id="patch_25">
    <path clip-path="url(#p8c1c07fa8f)" d="M 177.643844 344.019141 
L 261.194646 344.019141 
L 261.194646 120.740237 
L 177.643844 120.740237 
z
" style="fill:#ffa70f;stroke:#f21616;stroke-linejoin:miter;"/>
   </g>
   <g id="patch_26">
    <path clip-path="url(#p8c1c07fa8f)" d="M 282.082346 344.019141 
L 365.633148 344.019141 
L 365.633148 201.453269 
L 282.082346 201.453269 
z
" style="fill:#ffa70f;stroke:#f21616;stroke-linejoin:miter;"/>
   </g>
   <g id="patch_27">
    <path clip-path="url(#p8c1c07fa8f)" d="M 386.520849 344.019141 
L 470.071651 344.019141 
L 470.071651 82.153609 
L 386.520849 82.153609 
z
" style="fill:#ffa70f;stroke:#f21616;stroke-linejoin:miter;"/>
   </g>
   <g id="patch_28">
    <path clip-path="url(#p8c1c07fa8f)" d="M 490.959352 344.019141 
L 574.510154 344.019141 
L 574.510154 342.927943 
L 490.959352 342.927943 
z
" style="fill:#ffa70f;stroke:#ffffff;stroke-linejoin:miter;"/>
   </g>
   <g id="patch_29">
    <path clip-path="url(#p8c1c07fa8f)" d="M 595.397854 344.019141 
L 678.948656 344.019141 
L 678.948656 343.508865 
L 595.397854 343.508865 
z
" style="fill:#ffa70f;stroke:#ffffff;stroke-linejoin:miter;"/>
   </g>
   <g id="patch_30">
    <path clip-path="url(#p8c1c07fa8f)" d="M 699.836357 344.019141 
L 783.387159 344.019141 
L 783.387159 342.881457 
L 699.836357 342.881457 
z
" style="fill:#ffa70f;stroke:#ffffff;stroke-linejoin:miter;"/>
   </g>
   <g id="patch_31">
    <path clip-path="url(#p8c1c07fa8f)" d="M 73.205341 205.660694 
L 156.756143 205.660694 
L 156.756143 163.784556 
L 73.205341 163.784556 
z
" style="fill:#408f43;stroke:#ffffff;stroke-linejoin:miter;"/>
   </g>
   <g id="patch_32">
    <path clip-path="url(#p8c1c07fa8f)" d="M 177.643844 120.740237 
L 261.194646 120.740237 
L 261.194646 120.740237 
L 177.643844 120.740237 
z
" style="fill:#408f43;stroke:#f21616;stroke-linejoin:miter;"/>
   </g>
   <g id="patch_33">
    <path clip-path="url(#p8c1c07fa8f)" d="M 282.082346 201.453269 
L 365.633148 201.453269 
L 365.633148 201.453269 
L 282.082346 201.453269 
z
" style="fill:#408f43;stroke:#f21616;stroke-linejoin:miter;"/>
   </g>
   <g id="patch_34">
    <path clip-path="url(#p8c1c07fa8f)" d="M 386.520849 82.153609 
L 470.071651 82.153609 
L 470.071651 82.153609 
L 386.520849 82.153609 
z
" style="fill:#408f43;stroke:#f21616;stroke-linejoin:miter;"/>
   </g>
   <g id="patch_35">
    <path clip-path="url(#p8c1c07fa8f)" d="M 490.959352 342.927943 
L 574.510154 342.927943 
L 574.510154 342.927943 
L 490.959352 342.927943 
z
" style="fill:#408f43;stroke:#ffffff;stroke-linejoin:miter;"/>
   </g>
   <g id="patch_36">
    <path clip-path="url(#p8c1c07fa8f)" d="M 595.397854 343.508865 
L 678.948656 343.508865 
L 678.948656 343.508865 
L 595.397854 343.508865 
z
" style="fill:#408f43;stroke:#ffffff;stroke-linejoin:miter;"/>
   </g>
   <g id="patch_37">
    <path clip-path="url(#p8c1c07fa8f)" d="M 699.836357 342.881457 
L 783.387159 342.881457 
L 783.387159 342.881457 
L 699.836357 342.881457 
z
" style="fill:#408f43;stroke:#ffffff;stroke-linejoin:miter;"/>
   </g>
   <g id="patch_38">
    <path clip-path="url(#p8c1c07fa8f)" d="M 73.205341 163.784556 
L 156.756143 163.784556 
L 156.756143 163.602394 
L 73.205341 163.602394 
z
" style="fill:#d6f6ff;stroke:#ffffff;stroke-linejoin:miter;"/>
   </g>
   <g id="patch_39">
    <path clip-path="url(#p8c1c07fa8f)" d="M 177.643844 120.740237 
L 261.194646 120.740237 
L 261.194646 11.379141 
L 177.643844 11.379141 
z
" style="fill:#d6f6ff;stroke:#f21616;stroke-linejoin:miter;"/>
   </g>
   <g id="patch_40">
    <path clip-path="url(#p8c1c07fa8f)" d="M 282.082346 201.453269 
L 365.633148 201.453269 
L 365.633148 27.206092 
L 282.082346 27.206092 
z
" style="fill:#d6f6ff;stroke:#f21616;stroke-linejoin:miter;"/>
   </g>
   <g id="patch_41">
    <path clip-path="url(#p8c1c07fa8f)" d="M 386.520849 82.153609 
L 470.071651 82.153609 
L 470.071651 11.379141 
L 386.520849 11.379141 
z
" style="fill:#d6f6ff;stroke:#f21616;stroke-linejoin:miter;"/>
   </g>
   <g id="patch_42">
    <path clip-path="url(#p8c1c07fa8f)" d="M 490.959352 342.927943 
L 574.510154 342.927943 
L 574.510154 11.379141 
L 490.959352 11.379141 
z
" style="fill:#d6f6ff;stroke:#ffffff;stroke-linejoin:miter;"/>
   </g>
   <g id="patch_43">
    <path clip-path="url(#p8c1c07fa8f)" d="M 595.397854 343.508865 
L 678.948656 343.508865 
L 678.948656 11.837011 
L 595.397854 11.837011 
z
" style="fill:#d6f6ff;stroke:#ffffff;stroke-linejoin:miter;"/>
   </g>
   <g id="patch_44">
    <path clip-path="url(#p8c1c07fa8f)" d="M 699.836357 342.881457 
L 783.387159 342.881457 
L 783.387159 11.410284 
L 699.836357 11.410284 
z
" style="fill:#d6f6ff;stroke:#ffffff;stroke-linejoin:miter;"/>
   </g>
   <g id="patch_45">
    <path clip-path="url(#p8c1c07fa8f)" d="M 73.205341 163.602394 
L 156.756143 163.602394 
L 156.756143 111.069237 
L 73.205341 111.069237 
z
" style="fill:#c72e4c;stroke:#ffffff;stroke-linejoin:miter;"/>
   </g>
   <g id="patch_46">
    <path clip-path="url(#p8c1c07fa8f)" d="M 177.643844 11.379141 
L 261.194646 11.379141 
L 261.194646 11.379141 
L 177.643844 11.379141 
z
" style="fill:#c72e4c;stroke:#f21616;stroke-linejoin:miter;"/>
   </g>
   <g id="patch_47">
    <path clip-path="url(#p8c1c07fa8f)" d="M 282.082346 27.206092 
L 365.633148 27.206092 
L 365.633148 27.206092 
L 282.082346 27.206092 
z
" style="fill:#c72e4c;stroke:#f21616;stroke-linejoin:miter;"/>
   </g>
   <g id="patch_48">
    <path clip-path="url(#p8c1c07fa8f)" d="M 386.520849 11.379141 
L 470.071651 11.379141 
L 470.071651 11.379141 
L 386.520849 11.379141 
z
" style="fill:#c72e4c;stroke:#f21616;stroke-linejoin:miter;"/>
   </g>
   <g id="patch_49">
    <path clip-path="url(#p8c1c07fa8f)" d="M 490.959352 11.379141 
L 574.510154 11.379141 
L 574.510154 11.379141 
L 490.959352 11.379141 
z
" style="fill:#c72e4c;stroke:#ffffff;stroke-linejoin:miter;"/>
   </g>
   <g id="patch_50">
    <path clip-path="url(#p8c1c07fa8f)" d="M 595.397854 11.837011 
L 678.948656 11.837011 
L 678.948656 11.837011 
L 595.397854 11.837011 
z
" style="fill:#c72e4c;stroke:#ffffff;stroke-linejoin:miter;"/>
   </g>
   <g id="patch_51">
    <path clip-path="url(#p8c1c07fa8f)" d="M 699.836357 11.410284 
L 783.387159 11.410284 
L 783.387159 11.410284 
L 699.836357 11.410284 
z
" style="fill:#c72e4c;stroke:#ffffff;stroke-linejoin:miter;"/>
   </g>
   <g id="patch_52">
    <path clip-path="url(#p8c1c07fa8f)" d="M 73.205341 111.069237 
L 156.756143 111.069237 
L 156.756143 18.697358 
L 73.205341 18.697358 
z
" style="fill:#0758d1;stroke:#ffffff;stroke-linejoin:miter;"/>
   </g>
   <g id="patch_53">
    <path clip-path="url(#p8c1c07fa8f)" d="M 177.643844 11.379141 
L 261.194646 11.379141 
L 261.194646 11.379141 
L 177.643844 11.379141 
z
" style="fill:#0758d1;stroke:#f21616;stroke-linejoin:miter;"/>
   </g>
   <g id="patch_54">
    <path clip-path="url(#p8c1c07fa8f)" d="M 282.082346 27.206092 
L 365.633148 27.206092 
L 365.633148 27.206092 
L 282.082346 27.206092 
z
" style="fill:#0758d1;stroke:#f21616;stroke-linejoin:miter;"/>
   </g>
   <g id="patch_55">
    <path clip-path="url(#p8c1c07fa8f)" d="M 386.520849 11.379141 
L 470.071651 11.379141 
L 470.071651 11.379141 
L 386.520849 11.379141 
z
" style="fill:#0758d1;stroke:#f21616;stroke-linejoin:miter;"/>
   </g>
   <g id="patch_56">
    <path clip-path="url(#p8c1c07fa8f)" d="M 490.959352 11.379141 
L 574.510154 11.379141 
L 574.510154 11.379141 
L 490.959352 11.379141 
z
" style="fill:#0758d1;stroke:#ffffff;stroke-linejoin:miter;"/>
   </g>
   <g id="patch_57">
    <path clip-path="url(#p8c1c07fa8f)" d="M 595.397854 11.837011 
L 678.948656 11.837011 
L 678.948656 11.434974 
L 595.397854 11.434974 
z
" style="fill:#0758d1;stroke:#ffffff;stroke-linejoin:miter;"/>
   </g>
   <g id="patch_58">
    <path clip-path="url(#p8c1c07fa8f)" d="M 699.836357 11.410284 
L 783.387159 11.410284 
L 783.387159 11.410284 
L 699.836357 11.410284 
z
" style="fill:#0758d1;stroke:#ffffff;stroke-linejoin:miter;"/>
   </g>
   <g id="patch_59">
    <path clip-path="url(#p8c1c07fa8f)" d="M 73.205341 18.697358 
L 156.756143 18.697358 
L 156.756143 11.500524 
L 73.205341 11.500524 
z
" style="fill:#f780f6;stroke:#ffffff;stroke-linejoin:miter;"/>
   </g>
   <g id="patch_60">
    <path clip-path="url(#p8c1c07fa8f)" d="M 177.643844 11.379141 
L 261.194646 11.379141 
L 261.194646 11.379141 
L 177.643844 11.379141 
z
" style="fill:#f780f6;stroke:#f21616;stroke-linejoin:miter;"/>
   </g>
   <g id="patch_61">
    <path clip-path="url(#p8c1c07fa8f)" d="M 282.082346 27.206092 
L 365.633148 27.206092 
L 365.633148 27.206092 
L 282.082346 27.206092 
z
" style="fill:#f780f6;stroke:#f21616;stroke-linejoin:miter;"/>
   </g>
   <g id="patch_62">
    <path clip-path="url(#p8c1c07fa8f)" d="M 386.520849 11.379141 
L 470.071651 11.379141 
L 470.071651 11.379141 
L 386.520849 11.379141 
z
" style="fill:#f780f6;stroke:#f21616;stroke-linejoin:miter;"/>
   </g>
   <g id="patch_63">
    <path clip-path="url(#p8c1c07fa8f)" d="M 490.959352 11.379141 
L 574.510154 11.379141 
L 574.510154 11.379141 
L 490.959352 11.379141 
z
" style="fill:#f780f6;stroke:#ffffff;stroke-linejoin:miter;"/>
   </g>
   <g id="patch_64">
    <path clip-path="url(#p8c1c07fa8f)" d="M 595.397854 11.434974 
L 678.948656 11.434974 
L 678.948656 11.434974 
L 595.397854 11.434974 
z
" style="fill:#f780f6;stroke:#ffffff;stroke-linejoin:miter;"/>
   </g>
   <g id="patch_65">
    <path clip-path="url(#p8c1c07fa8f)" d="M 699.836357 11.410284 
L 783.387159 11.410284 
L 783.387159 11.410284 
L 699.836357 11.410284 
z
" style="fill:#f780f6;stroke:#ffffff;stroke-linejoin:miter;"/>
   </g>
   <g id="patch_66">
    <path clip-path="url(#p8c1c07fa8f)" d="M 73.205341 11.500524 
L 156.756143 11.500524 
L 156.756143 11.379141 
L 73.205341 11.379141 
z
" style="stroke:#ffffff;stroke-linejoin:miter;"/>
   </g>
   <g id="patch_67">
    <path clip-path="url(#p8c1c07fa8f)" d="M 177.643844 11.379141 
L 261.194646 11.379141 
L 261.194646 11.379141 
L 177.643844 11.379141 
z
" style="stroke:#f21616;stroke-linejoin:miter;"/>
   </g>
   <g id="patch_68">
    <path clip-path="url(#p8c1c07fa8f)" d="M 282.082346 27.206092 
L 365.633148 27.206092 
L 365.633148 11.379141 
L 282.082346 11.379141 
z
" style="stroke:#f21616;stroke-linejoin:miter;"/>
   </g>
   <g id="patch_69">
    <path clip-path="url(#p8c1c07fa8f)" d="M 386.520849 11.379141 
L 470.071651 11.379141 
L 470.071651 11.379141 
L 386.520849 11.379141 
z
" style="stroke:#f21616;stroke-linejoin:miter;"/>
   </g>
   <g id="patch_70">
    <path clip-path="url(#p8c1c07fa8f)" d="M 490.959352 11.379141 
L 574.510154 11.379141 
L 574.510154 11.379141 
L 490.959352 11.379141 
z
" style="stroke:#ffffff;stroke-linejoin:miter;"/>
   </g>
   <g id="patch_71">
    <path clip-path="url(#p8c1c07fa8f)" d="M 595.397854 11.434974 
L 678.948656 11.434974 
L 678.948656 11.379141 
L 595.397854 11.379141 
z
" style="stroke:#ffffff;stroke-linejoin:miter;"/>
   </g>
   <g id="patch_72">
    <path clip-path="url(#p8c1c07fa8f)" d="M 699.836357 11.410284 
L 783.387159 11.410284 
L 783.387159 11.379141 
L 699.836357 11.379141 
z
" style="stroke:#ffffff;stroke-linejoin:miter;"/>
   </g>
   <g id="patch_73">
    <path d="M 37.69625 344.019141 
L 37.69625 11.379141 
" style="fill:none;stroke:#ffffff;stroke-linecap:square;stroke-linejoin:miter;stroke-width:1.25;"/>
   </g>
   <g id="patch_74">
    <path d="M 818.89625 344.019141 
L 818.89625 11.379141 
" style="fill:none;stroke:#ffffff;stroke-linecap:square;stroke-linejoin:miter;stroke-width:1.25;"/>
   </g>
   <g id="patch_75">
    <path d="M 37.69625 344.019141 
L 818.89625 344.019141 
" style="fill:none;stroke:#ffffff;stroke-linecap:square;stroke-linejoin:miter;stroke-width:1.25;"/>
   </g>
   <g id="patch_76">
    <path d="M 37.69625 11.379141 
L 818.89625 11.379141 
" style="fill:none;stroke:#ffffff;stroke-linecap:square;stroke-linejoin:miter;stroke-width:1.25;"/>
   </g>
   <g id="legend_1">
    <g id="patch_77">
     <path d="M 171.484063 627.989641 
L 685.108438 627.989641 
Q 687.308438 627.989641 687.308438 625.789641 
L 687.308438 434.879141 
Q 687.308438 432.679141 685.108438 432.679141 
L 171.484063 432.679141 
Q 169.284063 432.679141 169.284063 434.879141 
L 169.284063 625.789641 
Q 169.284063 627.989641 171.484063 627.989641 
z
" style="fill:#eaeaf2;opacity:0.8;stroke:#cccccc;stroke-linejoin:miter;"/>
    </g>
    <g id="text_14">
     <!-- Classification -->
     <defs>
      <path d="M 64.40625 67.28125 
L 64.40625 56.890625 
Q 59.421875 61.53125 53.78125 63.8125 
Q 48.140625 66.109375 41.796875 66.109375 
Q 29.296875 66.109375 22.65625 58.46875 
Q 16.015625 50.828125 16.015625 36.375 
Q 16.015625 21.96875 22.65625 14.328125 
Q 29.296875 6.6875 41.796875 6.6875 
Q 48.140625 6.6875 53.78125 8.984375 
Q 59.421875 11.28125 64.40625 15.921875 
L 64.40625 5.609375 
Q 59.234375 2.09375 53.4375 0.328125 
Q 47.65625 -1.421875 41.21875 -1.421875 
Q 24.65625 -1.421875 15.125 8.703125 
Q 5.609375 18.84375 5.609375 36.375 
Q 5.609375 53.953125 15.125 64.078125 
Q 24.65625 74.21875 41.21875 74.21875 
Q 47.75 74.21875 53.53125 72.484375 
Q 59.328125 70.75 64.40625 67.28125 
z
" id="DejaVuSans-67"/>
      <path d="M 9.421875 75.984375 
L 18.40625 75.984375 
L 18.40625 0 
L 9.421875 0 
z
" id="DejaVuSans-108"/>
      <path d="M 44.28125 53.078125 
L 44.28125 44.578125 
Q 40.484375 46.53125 36.375 47.5 
Q 32.28125 48.484375 27.875 48.484375 
Q 21.1875 48.484375 17.84375 46.4375 
Q 14.5 44.390625 14.5 40.28125 
Q 14.5 37.15625 16.890625 35.375 
Q 19.28125 33.59375 26.515625 31.984375 
L 29.59375 31.296875 
Q 39.15625 29.25 43.1875 25.515625 
Q 47.21875 21.78125 47.21875 15.09375 
Q 47.21875 7.46875 41.1875 3.015625 
Q 35.15625 -1.421875 24.609375 -1.421875 
Q 20.21875 -1.421875 15.453125 -0.5625 
Q 10.6875 0.296875 5.421875 2 
L 5.421875 11.28125 
Q 10.40625 8.6875 15.234375 7.390625 
Q 20.0625 6.109375 24.8125 6.109375 
Q 31.15625 6.109375 34.5625 8.28125 
Q 37.984375 10.453125 37.984375 14.40625 
Q 37.984375 18.0625 35.515625 20.015625 
Q 33.0625 21.96875 24.703125 23.78125 
L 21.578125 24.515625 
Q 13.234375 26.265625 9.515625 29.90625 
Q 5.8125 33.546875 5.8125 39.890625 
Q 5.8125 47.609375 11.28125 51.796875 
Q 16.75 56 26.8125 56 
Q 31.78125 56 36.171875 55.265625 
Q 40.578125 54.546875 44.28125 53.078125 
z
" id="DejaVuSans-115"/>
      <path d="M 9.421875 54.6875 
L 18.40625 54.6875 
L 18.40625 0 
L 9.421875 0 
z
M 9.421875 75.984375 
L 18.40625 75.984375 
L 18.40625 64.59375 
L 9.421875 64.59375 
z
" id="DejaVuSans-105"/>
      <path d="M 37.109375 75.984375 
L 37.109375 68.5 
L 28.515625 68.5 
Q 23.6875 68.5 21.796875 66.546875 
Q 19.921875 64.59375 19.921875 59.515625 
L 19.921875 54.6875 
L 34.71875 54.6875 
L 34.71875 47.703125 
L 19.921875 47.703125 
L 19.921875 0 
L 10.890625 0 
L 10.890625 47.703125 
L 2.296875 47.703125 
L 2.296875 54.6875 
L 10.890625 54.6875 
L 10.890625 58.5 
Q 10.890625 67.625 15.140625 71.796875 
Q 19.390625 75.984375 28.609375 75.984375 
z
" id="DejaVuSans-102"/>
      <path d="M 18.3125 70.21875 
L 18.3125 54.6875 
L 36.8125 54.6875 
L 36.8125 47.703125 
L 18.3125 47.703125 
L 18.3125 18.015625 
Q 18.3125 11.328125 20.140625 9.421875 
Q 21.96875 7.515625 27.59375 7.515625 
L 36.8125 7.515625 
L 36.8125 0 
L 27.59375 0 
Q 17.1875 0 13.234375 3.875 
Q 9.28125 7.765625 9.28125 18.015625 
L 9.28125 47.703125 
L 2.6875 47.703125 
L 2.6875 54.6875 
L 9.28125 54.6875 
L 9.28125 70.21875 
z
" id="DejaVuSans-116"/>
      <path d="M 54.890625 33.015625 
L 54.890625 0 
L 45.90625 0 
L 45.90625 32.71875 
Q 45.90625 40.484375 42.875 44.328125 
Q 39.84375 48.1875 33.796875 48.1875 
Q 26.515625 48.1875 22.3125 43.546875 
Q 18.109375 38.921875 18.109375 30.90625 
L 18.109375 0 
L 9.078125 0 
L 9.078125 54.6875 
L 18.109375 54.6875 
L 18.109375 46.1875 
Q 21.34375 51.125 25.703125 53.5625 
Q 30.078125 56 35.796875 56 
Q 45.21875 56 50.046875 50.171875 
Q 54.890625 44.34375 54.890625 33.015625 
z
" id="DejaVuSans-110"/>
     </defs>
     <g style="fill:#262626;" transform="translate(388.596875 446.197266)scale(0.12 -0.12)">
      <use xlink:href="#DejaVuSans-67"/>
      <use x="69.824219" xlink:href="#DejaVuSans-108"/>
      <use x="97.607422" xlink:href="#DejaVuSans-97"/>
      <use x="158.886719" xlink:href="#DejaVuSans-115"/>
      <use x="210.986328" xlink:href="#DejaVuSans-115"/>
      <use x="263.085938" xlink:href="#DejaVuSans-105"/>
      <use x="290.869141" xlink:href="#DejaVuSans-102"/>
      <use x="326.074219" xlink:href="#DejaVuSans-105"/>
      <use x="353.857422" xlink:href="#DejaVuSans-99"/>
      <use x="408.837891" xlink:href="#DejaVuSans-97"/>
      <use x="470.117188" xlink:href="#DejaVuSans-116"/>
      <use x="509.326172" xlink:href="#DejaVuSans-105"/>
      <use x="537.109375" xlink:href="#DejaVuSans-111"/>
      <use x="598.291016" xlink:href="#DejaVuSans-110"/>
     </g>
     <!--  -->
     <g style="fill:#262626;" transform="translate(388.596875 459.634641)scale(0.12 -0.12)"/>
    </g>
    <g id="patch_78">
     <path d="M 173.684063 475.988547 
L 195.684063 475.988547 
L 195.684063 468.288547 
L 173.684063 468.288547 
z
" style="fill:#36aeff;stroke:#ffffff;stroke-linejoin:miter;"/>
    </g>
    <g id="text_15">
     <!-- Bacteria/Campylobacterota/Campylobacteria/Campylobacterales/Campylobacteraceae -->
     <defs>
      <path d="M 19.671875 34.8125 
L 19.671875 8.109375 
L 35.5 8.109375 
Q 43.453125 8.109375 47.28125 11.40625 
Q 51.125 14.703125 51.125 21.484375 
Q 51.125 28.328125 47.28125 31.5625 
Q 43.453125 34.8125 35.5 34.8125 
z
M 19.671875 64.796875 
L 19.671875 42.828125 
L 34.28125 42.828125 
Q 41.5 42.828125 45.03125 45.53125 
Q 48.578125 48.25 48.578125 53.8125 
Q 48.578125 59.328125 45.03125 62.0625 
Q 41.5 64.796875 34.28125 64.796875 
z
M 9.8125 72.90625 
L 35.015625 72.90625 
Q 46.296875 72.90625 52.390625 68.21875 
Q 58.5 63.53125 58.5 54.890625 
Q 58.5 48.1875 55.375 44.234375 
Q 52.25 40.28125 46.1875 39.3125 
Q 53.46875 37.75 57.5 32.78125 
Q 61.53125 27.828125 61.53125 20.40625 
Q 61.53125 10.640625 54.890625 5.3125 
Q 48.25 0 35.984375 0 
L 9.8125 0 
z
" id="DejaVuSans-66"/>
      <path d="M 25.390625 72.90625 
L 33.6875 72.90625 
L 8.296875 -9.28125 
L 0 -9.28125 
z
" id="DejaVuSans-47"/>
      <path d="M 52 44.1875 
Q 55.375 50.25 60.0625 53.125 
Q 64.75 56 71.09375 56 
Q 79.640625 56 84.28125 50.015625 
Q 88.921875 44.046875 88.921875 33.015625 
L 88.921875 0 
L 79.890625 0 
L 79.890625 32.71875 
Q 79.890625 40.578125 77.09375 44.375 
Q 74.3125 48.1875 68.609375 48.1875 
Q 61.625 48.1875 57.5625 43.546875 
Q 53.515625 38.921875 53.515625 30.90625 
L 53.515625 0 
L 44.484375 0 
L 44.484375 32.71875 
Q 44.484375 40.625 41.703125 44.40625 
Q 38.921875 48.1875 33.109375 48.1875 
Q 26.21875 48.1875 22.15625 43.53125 
Q 18.109375 38.875 18.109375 30.90625 
L 18.109375 0 
L 9.078125 0 
L 9.078125 54.6875 
L 18.109375 54.6875 
L 18.109375 46.1875 
Q 21.1875 51.21875 25.484375 53.609375 
Q 29.78125 56 35.6875 56 
Q 41.65625 56 45.828125 52.96875 
Q 50 49.953125 52 44.1875 
z
" id="DejaVuSans-109"/>
      <path d="M 18.109375 8.203125 
L 18.109375 -20.796875 
L 9.078125 -20.796875 
L 9.078125 54.6875 
L 18.109375 54.6875 
L 18.109375 46.390625 
Q 20.953125 51.265625 25.265625 53.625 
Q 29.59375 56 35.59375 56 
Q 45.5625 56 51.78125 48.09375 
Q 58.015625 40.1875 58.015625 27.296875 
Q 58.015625 14.40625 51.78125 6.484375 
Q 45.5625 -1.421875 35.59375 -1.421875 
Q 29.59375 -1.421875 25.265625 0.953125 
Q 20.953125 3.328125 18.109375 8.203125 
z
M 48.6875 27.296875 
Q 48.6875 37.203125 44.609375 42.84375 
Q 40.53125 48.484375 33.40625 48.484375 
Q 26.265625 48.484375 22.1875 42.84375 
Q 18.109375 37.203125 18.109375 27.296875 
Q 18.109375 17.390625 22.1875 11.75 
Q 26.265625 6.109375 33.40625 6.109375 
Q 40.53125 6.109375 44.609375 11.75 
Q 48.6875 17.390625 48.6875 27.296875 
z
" id="DejaVuSans-112"/>
      <path d="M 32.171875 -5.078125 
Q 28.375 -14.84375 24.75 -17.8125 
Q 21.140625 -20.796875 15.09375 -20.796875 
L 7.90625 -20.796875 
L 7.90625 -13.28125 
L 13.1875 -13.28125 
Q 16.890625 -13.28125 18.9375 -11.515625 
Q 21 -9.765625 23.484375 -3.21875 
L 25.09375 0.875 
L 2.984375 54.6875 
L 12.5 54.6875 
L 29.59375 11.921875 
L 46.6875 54.6875 
L 56.203125 54.6875 
z
" id="DejaVuSans-121"/>
     </defs>
     <g style="fill:#262626;" transform="translate(204.484063 475.988547)scale(0.11 -0.11)">
      <use xlink:href="#DejaVuSans-66"/>
      <use x="68.603516" xlink:href="#DejaVuSans-97"/>
      <use x="129.882812" xlink:href="#DejaVuSans-99"/>
      <use x="184.863281" xlink:href="#DejaVuSans-116"/>
      <use x="224.072266" xlink:href="#DejaVuSans-101"/>
      <use x="285.595703" xlink:href="#DejaVuSans-114"/>
      <use x="326.708984" xlink:href="#DejaVuSans-105"/>
      <use x="354.492188" xlink:href="#DejaVuSans-97"/>
      <use x="415.771484" xlink:href="#DejaVuSans-47"/>
      <use x="449.462891" xlink:href="#DejaVuSans-67"/>
      <use x="519.287109" xlink:href="#DejaVuSans-97"/>
      <use x="580.566406" xlink:href="#DejaVuSans-109"/>
      <use x="677.978516" xlink:href="#DejaVuSans-112"/>
      <use x="741.455078" xlink:href="#DejaVuSans-121"/>
      <use x="800.634766" xlink:href="#DejaVuSans-108"/>
      <use x="828.417969" xlink:href="#DejaVuSans-111"/>
      <use x="889.599609" xlink:href="#DejaVuSans-98"/>
      <use x="953.076172" xlink:href="#DejaVuSans-97"/>
      <use x="1014.355469" xlink:href="#DejaVuSans-99"/>
      <use x="1069.335938" xlink:href="#DejaVuSans-116"/>
      <use x="1108.544922" xlink:href="#DejaVuSans-101"/>
      <use x="1170.068359" xlink:href="#DejaVuSans-114"/>
      <use x="1208.931641" xlink:href="#DejaVuSans-111"/>
      <use x="1270.113281" xlink:href="#DejaVuSans-116"/>
      <use x="1309.322266" xlink:href="#DejaVuSans-97"/>
      <use x="1370.601562" xlink:href="#DejaVuSans-47"/>
      <use x="1404.292969" xlink:href="#DejaVuSans-67"/>
      <use x="1474.117188" xlink:href="#DejaVuSans-97"/>
      <use x="1535.396484" xlink:href="#DejaVuSans-109"/>
      <use x="1632.808594" xlink:href="#DejaVuSans-112"/>
      <use x="1696.285156" xlink:href="#DejaVuSans-121"/>
      <use x="1755.464844" xlink:href="#DejaVuSans-108"/>
      <use x="1783.248047" xlink:href="#DejaVuSans-111"/>
      <use x="1844.429688" xlink:href="#DejaVuSans-98"/>
      <use x="1907.90625" xlink:href="#DejaVuSans-97"/>
      <use x="1969.185547" xlink:href="#DejaVuSans-99"/>
      <use x="2024.166016" xlink:href="#DejaVuSans-116"/>
      <use x="2063.375" xlink:href="#DejaVuSans-101"/>
      <use x="2124.898438" xlink:href="#DejaVuSans-114"/>
      <use x="2166.011719" xlink:href="#DejaVuSans-105"/>
      <use x="2193.794922" xlink:href="#DejaVuSans-97"/>
      <use x="2255.074219" xlink:href="#DejaVuSans-47"/>
      <use x="2288.765625" xlink:href="#DejaVuSans-67"/>
      <use x="2358.589844" xlink:href="#DejaVuSans-97"/>
      <use x="2419.869141" xlink:href="#DejaVuSans-109"/>
      <use x="2517.28125" xlink:href="#DejaVuSans-112"/>
      <use x="2580.757812" xlink:href="#DejaVuSans-121"/>
      <use x="2639.9375" xlink:href="#DejaVuSans-108"/>
      <use x="2667.720703" xlink:href="#DejaVuSans-111"/>
      <use x="2728.902344" xlink:href="#DejaVuSans-98"/>
      <use x="2792.378906" xlink:href="#DejaVuSans-97"/>
      <use x="2853.658203" xlink:href="#DejaVuSans-99"/>
      <use x="2908.638672" xlink:href="#DejaVuSans-116"/>
      <use x="2947.847656" xlink:href="#DejaVuSans-101"/>
      <use x="3009.371094" xlink:href="#DejaVuSans-114"/>
      <use x="3050.484375" xlink:href="#DejaVuSans-97"/>
      <use x="3111.763672" xlink:href="#DejaVuSans-108"/>
      <use x="3139.546875" xlink:href="#DejaVuSans-101"/>
      <use x="3201.070312" xlink:href="#DejaVuSans-115"/>
      <use x="3253.169922" xlink:href="#DejaVuSans-47"/>
      <use x="3286.861328" xlink:href="#DejaVuSans-67"/>
      <use x="3356.685547" xlink:href="#DejaVuSans-97"/>
      <use x="3417.964844" xlink:href="#DejaVuSans-109"/>
      <use x="3515.376953" xlink:href="#DejaVuSans-112"/>
      <use x="3578.853516" xlink:href="#DejaVuSans-121"/>
      <use x="3638.033203" xlink:href="#DejaVuSans-108"/>
      <use x="3665.816406" xlink:href="#DejaVuSans-111"/>
      <use x="3726.998047" xlink:href="#DejaVuSans-98"/>
      <use x="3790.474609" xlink:href="#DejaVuSans-97"/>
      <use x="3851.753906" xlink:href="#DejaVuSans-99"/>
      <use x="3906.734375" xlink:href="#DejaVuSans-116"/>
      <use x="3945.943359" xlink:href="#DejaVuSans-101"/>
      <use x="4007.466797" xlink:href="#DejaVuSans-114"/>
      <use x="4048.580078" xlink:href="#DejaVuSans-97"/>
      <use x="4109.859375" xlink:href="#DejaVuSans-99"/>
      <use x="4164.839844" xlink:href="#DejaVuSans-101"/>
      <use x="4226.363281" xlink:href="#DejaVuSans-97"/>
      <use x="4287.642578" xlink:href="#DejaVuSans-101"/>
     </g>
    </g>
    <g id="patch_79">
     <path d="M 173.684063 492.134484 
L 195.684063 492.134484 
L 195.684063 484.434484 
L 173.684063 484.434484 
z
" style="fill:#ffdc82;stroke:#ffffff;stroke-linejoin:miter;"/>
    </g>
    <g id="text_16">
     <!-- Bacteria/Firmicutes/Bacilli/Bacillales/Bacillaceae -->
     <defs>
      <path d="M 9.8125 72.90625 
L 51.703125 72.90625 
L 51.703125 64.59375 
L 19.671875 64.59375 
L 19.671875 43.109375 
L 48.578125 43.109375 
L 48.578125 34.8125 
L 19.671875 34.8125 
L 19.671875 0 
L 9.8125 0 
z
" id="DejaVuSans-70"/>
      <path d="M 8.5 21.578125 
L 8.5 54.6875 
L 17.484375 54.6875 
L 17.484375 21.921875 
Q 17.484375 14.15625 20.5 10.265625 
Q 23.53125 6.390625 29.59375 6.390625 
Q 36.859375 6.390625 41.078125 11.03125 
Q 45.3125 15.671875 45.3125 23.6875 
L 45.3125 54.6875 
L 54.296875 54.6875 
L 54.296875 0 
L 45.3125 0 
L 45.3125 8.40625 
Q 42.046875 3.421875 37.71875 1 
Q 33.40625 -1.421875 27.6875 -1.421875 
Q 18.265625 -1.421875 13.375 4.4375 
Q 8.5 10.296875 8.5 21.578125 
z
M 31.109375 56 
z
" id="DejaVuSans-117"/>
     </defs>
     <g style="fill:#262626;" transform="translate(204.484063 492.134484)scale(0.11 -0.11)">
      <use xlink:href="#DejaVuSans-66"/>
      <use x="68.603516" xlink:href="#DejaVuSans-97"/>
      <use x="129.882812" xlink:href="#DejaVuSans-99"/>
      <use x="184.863281" xlink:href="#DejaVuSans-116"/>
      <use x="224.072266" xlink:href="#DejaVuSans-101"/>
      <use x="285.595703" xlink:href="#DejaVuSans-114"/>
      <use x="326.708984" xlink:href="#DejaVuSans-105"/>
      <use x="354.492188" xlink:href="#DejaVuSans-97"/>
      <use x="415.771484" xlink:href="#DejaVuSans-47"/>
      <use x="449.462891" xlink:href="#DejaVuSans-70"/>
      <use x="499.732422" xlink:href="#DejaVuSans-105"/>
      <use x="527.515625" xlink:href="#DejaVuSans-114"/>
      <use x="566.878906" xlink:href="#DejaVuSans-109"/>
      <use x="664.291016" xlink:href="#DejaVuSans-105"/>
      <use x="692.074219" xlink:href="#DejaVuSans-99"/>
      <use x="747.054688" xlink:href="#DejaVuSans-117"/>
      <use x="810.433594" xlink:href="#DejaVuSans-116"/>
      <use x="849.642578" xlink:href="#DejaVuSans-101"/>
      <use x="911.166016" xlink:href="#DejaVuSans-115"/>
      <use x="963.265625" xlink:href="#DejaVuSans-47"/>
      <use x="996.957031" xlink:href="#DejaVuSans-66"/>
      <use x="1065.560547" xlink:href="#DejaVuSans-97"/>
      <use x="1126.839844" xlink:href="#DejaVuSans-99"/>
      <use x="1181.820312" xlink:href="#DejaVuSans-105"/>
      <use x="1209.603516" xlink:href="#DejaVuSans-108"/>
      <use x="1237.386719" xlink:href="#DejaVuSans-108"/>
      <use x="1265.169922" xlink:href="#DejaVuSans-105"/>
      <use x="1292.953125" xlink:href="#DejaVuSans-47"/>
      <use x="1326.644531" xlink:href="#DejaVuSans-66"/>
      <use x="1395.248047" xlink:href="#DejaVuSans-97"/>
      <use x="1456.527344" xlink:href="#DejaVuSans-99"/>
      <use x="1511.507812" xlink:href="#DejaVuSans-105"/>
      <use x="1539.291016" xlink:href="#DejaVuSans-108"/>
      <use x="1567.074219" xlink:href="#DejaVuSans-108"/>
      <use x="1594.857422" xlink:href="#DejaVuSans-97"/>
      <use x="1656.136719" xlink:href="#DejaVuSans-108"/>
      <use x="1683.919922" xlink:href="#DejaVuSans-101"/>
      <use x="1745.443359" xlink:href="#DejaVuSans-115"/>
      <use x="1797.542969" xlink:href="#DejaVuSans-47"/>
      <use x="1831.234375" xlink:href="#DejaVuSans-66"/>
      <use x="1899.837891" xlink:href="#DejaVuSans-97"/>
      <use x="1961.117188" xlink:href="#DejaVuSans-99"/>
      <use x="2016.097656" xlink:href="#DejaVuSans-105"/>
      <use x="2043.880859" xlink:href="#DejaVuSans-108"/>
      <use x="2071.664062" xlink:href="#DejaVuSans-108"/>
      <use x="2099.447266" xlink:href="#DejaVuSans-97"/>
      <use x="2160.726562" xlink:href="#DejaVuSans-99"/>
      <use x="2215.707031" xlink:href="#DejaVuSans-101"/>
      <use x="2277.230469" xlink:href="#DejaVuSans-97"/>
      <use x="2338.509766" xlink:href="#DejaVuSans-101"/>
     </g>
    </g>
    <g id="patch_80">
     <path d="M 173.684063 508.280422 
L 195.684063 508.280422 
L 195.684063 500.580422 
L 173.684063 500.580422 
z
" style="fill:#bf63be;stroke:#ffffff;stroke-linejoin:miter;"/>
    </g>
    <g id="text_17">
     <!-- Bacteria/Firmicutes/Bacilli/Lactobacillales/Enterococcaceae -->
     <defs>
      <path d="M 9.8125 72.90625 
L 19.671875 72.90625 
L 19.671875 8.296875 
L 55.171875 8.296875 
L 55.171875 0 
L 9.8125 0 
z
" id="DejaVuSans-76"/>
      <path d="M 9.8125 72.90625 
L 55.90625 72.90625 
L 55.90625 64.59375 
L 19.671875 64.59375 
L 19.671875 43.015625 
L 54.390625 43.015625 
L 54.390625 34.71875 
L 19.671875 34.71875 
L 19.671875 8.296875 
L 56.78125 8.296875 
L 56.78125 0 
L 9.8125 0 
z
" id="DejaVuSans-69"/>
     </defs>
     <g style="fill:#262626;" transform="translate(204.484063 508.280422)scale(0.11 -0.11)">
      <use xlink:href="#DejaVuSans-66"/>
      <use x="68.603516" xlink:href="#DejaVuSans-97"/>
      <use x="129.882812" xlink:href="#DejaVuSans-99"/>
      <use x="184.863281" xlink:href="#DejaVuSans-116"/>
      <use x="224.072266" xlink:href="#DejaVuSans-101"/>
      <use x="285.595703" xlink:href="#DejaVuSans-114"/>
      <use x="326.708984" xlink:href="#DejaVuSans-105"/>
      <use x="354.492188" xlink:href="#DejaVuSans-97"/>
      <use x="415.771484" xlink:href="#DejaVuSans-47"/>
      <use x="449.462891" xlink:href="#DejaVuSans-70"/>
      <use x="499.732422" xlink:href="#DejaVuSans-105"/>
      <use x="527.515625" xlink:href="#DejaVuSans-114"/>
      <use x="566.878906" xlink:href="#DejaVuSans-109"/>
      <use x="664.291016" xlink:href="#DejaVuSans-105"/>
      <use x="692.074219" xlink:href="#DejaVuSans-99"/>
      <use x="747.054688" xlink:href="#DejaVuSans-117"/>
      <use x="810.433594" xlink:href="#DejaVuSans-116"/>
      <use x="849.642578" xlink:href="#DejaVuSans-101"/>
      <use x="911.166016" xlink:href="#DejaVuSans-115"/>
      <use x="963.265625" xlink:href="#DejaVuSans-47"/>
      <use x="996.957031" xlink:href="#DejaVuSans-66"/>
      <use x="1065.560547" xlink:href="#DejaVuSans-97"/>
      <use x="1126.839844" xlink:href="#DejaVuSans-99"/>
      <use x="1181.820312" xlink:href="#DejaVuSans-105"/>
      <use x="1209.603516" xlink:href="#DejaVuSans-108"/>
      <use x="1237.386719" xlink:href="#DejaVuSans-108"/>
      <use x="1265.169922" xlink:href="#DejaVuSans-105"/>
      <use x="1292.953125" xlink:href="#DejaVuSans-47"/>
      <use x="1326.644531" xlink:href="#DejaVuSans-76"/>
      <use x="1382.357422" xlink:href="#DejaVuSans-97"/>
      <use x="1443.636719" xlink:href="#DejaVuSans-99"/>
      <use x="1498.617188" xlink:href="#DejaVuSans-116"/>
      <use x="1537.826172" xlink:href="#DejaVuSans-111"/>
      <use x="1599.007812" xlink:href="#DejaVuSans-98"/>
      <use x="1662.484375" xlink:href="#DejaVuSans-97"/>
      <use x="1723.763672" xlink:href="#DejaVuSans-99"/>
      <use x="1778.744141" xlink:href="#DejaVuSans-105"/>
      <use x="1806.527344" xlink:href="#DejaVuSans-108"/>
      <use x="1834.310547" xlink:href="#DejaVuSans-108"/>
      <use x="1862.09375" xlink:href="#DejaVuSans-97"/>
      <use x="1923.373047" xlink:href="#DejaVuSans-108"/>
      <use x="1951.15625" xlink:href="#DejaVuSans-101"/>
      <use x="2012.679688" xlink:href="#DejaVuSans-115"/>
      <use x="2064.779297" xlink:href="#DejaVuSans-47"/>
      <use x="2098.470703" xlink:href="#DejaVuSans-69"/>
      <use x="2161.654297" xlink:href="#DejaVuSans-110"/>
      <use x="2225.033203" xlink:href="#DejaVuSans-116"/>
      <use x="2264.242188" xlink:href="#DejaVuSans-101"/>
      <use x="2325.765625" xlink:href="#DejaVuSans-114"/>
      <use x="2364.628906" xlink:href="#DejaVuSans-111"/>
      <use x="2425.810547" xlink:href="#DejaVuSans-99"/>
      <use x="2480.791016" xlink:href="#DejaVuSans-111"/>
      <use x="2541.972656" xlink:href="#DejaVuSans-99"/>
      <use x="2596.953125" xlink:href="#DejaVuSans-99"/>
      <use x="2651.933594" xlink:href="#DejaVuSans-97"/>
      <use x="2713.212891" xlink:href="#DejaVuSans-99"/>
      <use x="2768.193359" xlink:href="#DejaVuSans-101"/>
      <use x="2829.716797" xlink:href="#DejaVuSans-97"/>
      <use x="2890.996094" xlink:href="#DejaVuSans-101"/>
     </g>
    </g>
    <g id="patch_81">
     <path d="M 173.684063 524.426359 
L 195.684063 524.426359 
L 195.684063 516.726359 
L 173.684063 516.726359 
z
" style="fill:#ffa70f;stroke:#ffffff;stroke-linejoin:miter;"/>
    </g>
    <g id="text_18">
     <!-- Bacteria/Firmicutes/Bacilli/Lactobacillales/Lactobacillaceae -->
     <g style="fill:#262626;" transform="translate(204.484063 524.426359)scale(0.11 -0.11)">
      <use xlink:href="#DejaVuSans-66"/>
      <use x="68.603516" xlink:href="#DejaVuSans-97"/>
      <use x="129.882812" xlink:href="#DejaVuSans-99"/>
      <use x="184.863281" xlink:href="#DejaVuSans-116"/>
      <use x="224.072266" xlink:href="#DejaVuSans-101"/>
      <use x="285.595703" xlink:href="#DejaVuSans-114"/>
      <use x="326.708984" xlink:href="#DejaVuSans-105"/>
      <use x="354.492188" xlink:href="#DejaVuSans-97"/>
      <use x="415.771484" xlink:href="#DejaVuSans-47"/>
      <use x="449.462891" xlink:href="#DejaVuSans-70"/>
      <use x="499.732422" xlink:href="#DejaVuSans-105"/>
      <use x="527.515625" xlink:href="#DejaVuSans-114"/>
      <use x="566.878906" xlink:href="#DejaVuSans-109"/>
      <use x="664.291016" xlink:href="#DejaVuSans-105"/>
      <use x="692.074219" xlink:href="#DejaVuSans-99"/>
      <use x="747.054688" xlink:href="#DejaVuSans-117"/>
      <use x="810.433594" xlink:href="#DejaVuSans-116"/>
      <use x="849.642578" xlink:href="#DejaVuSans-101"/>
      <use x="911.166016" xlink:href="#DejaVuSans-115"/>
      <use x="963.265625" xlink:href="#DejaVuSans-47"/>
      <use x="996.957031" xlink:href="#DejaVuSans-66"/>
      <use x="1065.560547" xlink:href="#DejaVuSans-97"/>
      <use x="1126.839844" xlink:href="#DejaVuSans-99"/>
      <use x="1181.820312" xlink:href="#DejaVuSans-105"/>
      <use x="1209.603516" xlink:href="#DejaVuSans-108"/>
      <use x="1237.386719" xlink:href="#DejaVuSans-108"/>
      <use x="1265.169922" xlink:href="#DejaVuSans-105"/>
      <use x="1292.953125" xlink:href="#DejaVuSans-47"/>
      <use x="1326.644531" xlink:href="#DejaVuSans-76"/>
      <use x="1382.357422" xlink:href="#DejaVuSans-97"/>
      <use x="1443.636719" xlink:href="#DejaVuSans-99"/>
      <use x="1498.617188" xlink:href="#DejaVuSans-116"/>
      <use x="1537.826172" xlink:href="#DejaVuSans-111"/>
      <use x="1599.007812" xlink:href="#DejaVuSans-98"/>
      <use x="1662.484375" xlink:href="#DejaVuSans-97"/>
      <use x="1723.763672" xlink:href="#DejaVuSans-99"/>
      <use x="1778.744141" xlink:href="#DejaVuSans-105"/>
      <use x="1806.527344" xlink:href="#DejaVuSans-108"/>
      <use x="1834.310547" xlink:href="#DejaVuSans-108"/>
      <use x="1862.09375" xlink:href="#DejaVuSans-97"/>
      <use x="1923.373047" xlink:href="#DejaVuSans-108"/>
      <use x="1951.15625" xlink:href="#DejaVuSans-101"/>
      <use x="2012.679688" xlink:href="#DejaVuSans-115"/>
      <use x="2064.779297" xlink:href="#DejaVuSans-47"/>
      <use x="2098.470703" xlink:href="#DejaVuSans-76"/>
      <use x="2154.183594" xlink:href="#DejaVuSans-97"/>
      <use x="2215.462891" xlink:href="#DejaVuSans-99"/>
      <use x="2270.443359" xlink:href="#DejaVuSans-116"/>
      <use x="2309.652344" xlink:href="#DejaVuSans-111"/>
      <use x="2370.833984" xlink:href="#DejaVuSans-98"/>
      <use x="2434.310547" xlink:href="#DejaVuSans-97"/>
      <use x="2495.589844" xlink:href="#DejaVuSans-99"/>
      <use x="2550.570312" xlink:href="#DejaVuSans-105"/>
      <use x="2578.353516" xlink:href="#DejaVuSans-108"/>
      <use x="2606.136719" xlink:href="#DejaVuSans-108"/>
      <use x="2633.919922" xlink:href="#DejaVuSans-97"/>
      <use x="2695.199219" xlink:href="#DejaVuSans-99"/>
      <use x="2750.179688" xlink:href="#DejaVuSans-101"/>
      <use x="2811.703125" xlink:href="#DejaVuSans-97"/>
      <use x="2872.982422" xlink:href="#DejaVuSans-101"/>
     </g>
    </g>
    <g id="patch_82">
     <path d="M 173.684063 540.572297 
L 195.684063 540.572297 
L 195.684063 532.872297 
L 173.684063 532.872297 
z
" style="fill:#408f43;stroke:#ffffff;stroke-linejoin:miter;"/>
    </g>
    <g id="text_19">
     <!-- Bacteria/Firmicutes/Bacilli/Lactobacillales/Listeriaceae -->
     <g style="fill:#262626;" transform="translate(204.484063 540.572297)scale(0.11 -0.11)">
      <use xlink:href="#DejaVuSans-66"/>
      <use x="68.603516" xlink:href="#DejaVuSans-97"/>
      <use x="129.882812" xlink:href="#DejaVuSans-99"/>
      <use x="184.863281" xlink:href="#DejaVuSans-116"/>
      <use x="224.072266" xlink:href="#DejaVuSans-101"/>
      <use x="285.595703" xlink:href="#DejaVuSans-114"/>
      <use x="326.708984" xlink:href="#DejaVuSans-105"/>
      <use x="354.492188" xlink:href="#DejaVuSans-97"/>
      <use x="415.771484" xlink:href="#DejaVuSans-47"/>
      <use x="449.462891" xlink:href="#DejaVuSans-70"/>
      <use x="499.732422" xlink:href="#DejaVuSans-105"/>
      <use x="527.515625" xlink:href="#DejaVuSans-114"/>
      <use x="566.878906" xlink:href="#DejaVuSans-109"/>
      <use x="664.291016" xlink:href="#DejaVuSans-105"/>
      <use x="692.074219" xlink:href="#DejaVuSans-99"/>
      <use x="747.054688" xlink:href="#DejaVuSans-117"/>
      <use x="810.433594" xlink:href="#DejaVuSans-116"/>
      <use x="849.642578" xlink:href="#DejaVuSans-101"/>
      <use x="911.166016" xlink:href="#DejaVuSans-115"/>
      <use x="963.265625" xlink:href="#DejaVuSans-47"/>
      <use x="996.957031" xlink:href="#DejaVuSans-66"/>
      <use x="1065.560547" xlink:href="#DejaVuSans-97"/>
      <use x="1126.839844" xlink:href="#DejaVuSans-99"/>
      <use x="1181.820312" xlink:href="#DejaVuSans-105"/>
      <use x="1209.603516" xlink:href="#DejaVuSans-108"/>
      <use x="1237.386719" xlink:href="#DejaVuSans-108"/>
      <use x="1265.169922" xlink:href="#DejaVuSans-105"/>
      <use x="1292.953125" xlink:href="#DejaVuSans-47"/>
      <use x="1326.644531" xlink:href="#DejaVuSans-76"/>
      <use x="1382.357422" xlink:href="#DejaVuSans-97"/>
      <use x="1443.636719" xlink:href="#DejaVuSans-99"/>
      <use x="1498.617188" xlink:href="#DejaVuSans-116"/>
      <use x="1537.826172" xlink:href="#DejaVuSans-111"/>
      <use x="1599.007812" xlink:href="#DejaVuSans-98"/>
      <use x="1662.484375" xlink:href="#DejaVuSans-97"/>
      <use x="1723.763672" xlink:href="#DejaVuSans-99"/>
      <use x="1778.744141" xlink:href="#DejaVuSans-105"/>
      <use x="1806.527344" xlink:href="#DejaVuSans-108"/>
      <use x="1834.310547" xlink:href="#DejaVuSans-108"/>
      <use x="1862.09375" xlink:href="#DejaVuSans-97"/>
      <use x="1923.373047" xlink:href="#DejaVuSans-108"/>
      <use x="1951.15625" xlink:href="#DejaVuSans-101"/>
      <use x="2012.679688" xlink:href="#DejaVuSans-115"/>
      <use x="2064.779297" xlink:href="#DejaVuSans-47"/>
      <use x="2098.470703" xlink:href="#DejaVuSans-76"/>
      <use x="2154.183594" xlink:href="#DejaVuSans-105"/>
      <use x="2181.966797" xlink:href="#DejaVuSans-115"/>
      <use x="2234.066406" xlink:href="#DejaVuSans-116"/>
      <use x="2273.275391" xlink:href="#DejaVuSans-101"/>
      <use x="2334.798828" xlink:href="#DejaVuSans-114"/>
      <use x="2375.912109" xlink:href="#DejaVuSans-105"/>
      <use x="2403.695312" xlink:href="#DejaVuSans-97"/>
      <use x="2464.974609" xlink:href="#DejaVuSans-99"/>
      <use x="2519.955078" xlink:href="#DejaVuSans-101"/>
      <use x="2581.478516" xlink:href="#DejaVuSans-97"/>
      <use x="2642.757812" xlink:href="#DejaVuSans-101"/>
     </g>
    </g>
    <g id="patch_83">
     <path d="M 173.684063 556.718234 
L 195.684063 556.718234 
L 195.684063 549.018234 
L 173.684063 549.018234 
z
" style="fill:#d6f6ff;stroke:#ffffff;stroke-linejoin:miter;"/>
    </g>
    <g id="text_20">
     <!-- Bacteria/Firmicutes/Bacilli/Lactobacillales/Streptococcaceae -->
     <defs>
      <path d="M 53.515625 70.515625 
L 53.515625 60.890625 
Q 47.90625 63.578125 42.921875 64.890625 
Q 37.9375 66.21875 33.296875 66.21875 
Q 25.25 66.21875 20.875 63.09375 
Q 16.5 59.96875 16.5 54.203125 
Q 16.5 49.359375 19.40625 46.890625 
Q 22.3125 44.4375 30.421875 42.921875 
L 36.375 41.703125 
Q 47.40625 39.59375 52.65625 34.296875 
Q 57.90625 29 57.90625 20.125 
Q 57.90625 9.515625 50.796875 4.046875 
Q 43.703125 -1.421875 29.984375 -1.421875 
Q 24.8125 -1.421875 18.96875 -0.25 
Q 13.140625 0.921875 6.890625 3.21875 
L 6.890625 13.375 
Q 12.890625 10.015625 18.65625 8.296875 
Q 24.421875 6.59375 29.984375 6.59375 
Q 38.421875 6.59375 43.015625 9.90625 
Q 47.609375 13.234375 47.609375 19.390625 
Q 47.609375 24.75 44.3125 27.78125 
Q 41.015625 30.8125 33.5 32.328125 
L 27.484375 33.5 
Q 16.453125 35.6875 11.515625 40.375 
Q 6.59375 45.0625 6.59375 53.421875 
Q 6.59375 63.09375 13.40625 68.65625 
Q 20.21875 74.21875 32.171875 74.21875 
Q 37.3125 74.21875 42.625 73.28125 
Q 47.953125 72.359375 53.515625 70.515625 
z
" id="DejaVuSans-83"/>
     </defs>
     <g style="fill:#262626;" transform="translate(204.484063 556.718234)scale(0.11 -0.11)">
      <use xlink:href="#DejaVuSans-66"/>
      <use x="68.603516" xlink:href="#DejaVuSans-97"/>
      <use x="129.882812" xlink:href="#DejaVuSans-99"/>
      <use x="184.863281" xlink:href="#DejaVuSans-116"/>
      <use x="224.072266" xlink:href="#DejaVuSans-101"/>
      <use x="285.595703" xlink:href="#DejaVuSans-114"/>
      <use x="326.708984" xlink:href="#DejaVuSans-105"/>
      <use x="354.492188" xlink:href="#DejaVuSans-97"/>
      <use x="415.771484" xlink:href="#DejaVuSans-47"/>
      <use x="449.462891" xlink:href="#DejaVuSans-70"/>
      <use x="499.732422" xlink:href="#DejaVuSans-105"/>
      <use x="527.515625" xlink:href="#DejaVuSans-114"/>
      <use x="566.878906" xlink:href="#DejaVuSans-109"/>
      <use x="664.291016" xlink:href="#DejaVuSans-105"/>
      <use x="692.074219" xlink:href="#DejaVuSans-99"/>
      <use x="747.054688" xlink:href="#DejaVuSans-117"/>
      <use x="810.433594" xlink:href="#DejaVuSans-116"/>
      <use x="849.642578" xlink:href="#DejaVuSans-101"/>
      <use x="911.166016" xlink:href="#DejaVuSans-115"/>
      <use x="963.265625" xlink:href="#DejaVuSans-47"/>
      <use x="996.957031" xlink:href="#DejaVuSans-66"/>
      <use x="1065.560547" xlink:href="#DejaVuSans-97"/>
      <use x="1126.839844" xlink:href="#DejaVuSans-99"/>
      <use x="1181.820312" xlink:href="#DejaVuSans-105"/>
      <use x="1209.603516" xlink:href="#DejaVuSans-108"/>
      <use x="1237.386719" xlink:href="#DejaVuSans-108"/>
      <use x="1265.169922" xlink:href="#DejaVuSans-105"/>
      <use x="1292.953125" xlink:href="#DejaVuSans-47"/>
      <use x="1326.644531" xlink:href="#DejaVuSans-76"/>
      <use x="1382.357422" xlink:href="#DejaVuSans-97"/>
      <use x="1443.636719" xlink:href="#DejaVuSans-99"/>
      <use x="1498.617188" xlink:href="#DejaVuSans-116"/>
      <use x="1537.826172" xlink:href="#DejaVuSans-111"/>
      <use x="1599.007812" xlink:href="#DejaVuSans-98"/>
      <use x="1662.484375" xlink:href="#DejaVuSans-97"/>
      <use x="1723.763672" xlink:href="#DejaVuSans-99"/>
      <use x="1778.744141" xlink:href="#DejaVuSans-105"/>
      <use x="1806.527344" xlink:href="#DejaVuSans-108"/>
      <use x="1834.310547" xlink:href="#DejaVuSans-108"/>
      <use x="1862.09375" xlink:href="#DejaVuSans-97"/>
      <use x="1923.373047" xlink:href="#DejaVuSans-108"/>
      <use x="1951.15625" xlink:href="#DejaVuSans-101"/>
      <use x="2012.679688" xlink:href="#DejaVuSans-115"/>
      <use x="2064.779297" xlink:href="#DejaVuSans-47"/>
      <use x="2098.470703" xlink:href="#DejaVuSans-83"/>
      <use x="2161.947266" xlink:href="#DejaVuSans-116"/>
      <use x="2201.15625" xlink:href="#DejaVuSans-114"/>
      <use x="2240.019531" xlink:href="#DejaVuSans-101"/>
      <use x="2301.542969" xlink:href="#DejaVuSans-112"/>
      <use x="2365.019531" xlink:href="#DejaVuSans-116"/>
      <use x="2404.228516" xlink:href="#DejaVuSans-111"/>
      <use x="2465.410156" xlink:href="#DejaVuSans-99"/>
      <use x="2520.390625" xlink:href="#DejaVuSans-111"/>
      <use x="2581.572266" xlink:href="#DejaVuSans-99"/>
      <use x="2636.552734" xlink:href="#DejaVuSans-99"/>
      <use x="2691.533203" xlink:href="#DejaVuSans-97"/>
      <use x="2752.8125" xlink:href="#DejaVuSans-99"/>
      <use x="2807.792969" xlink:href="#DejaVuSans-101"/>
      <use x="2869.316406" xlink:href="#DejaVuSans-97"/>
      <use x="2930.595703" xlink:href="#DejaVuSans-101"/>
     </g>
    </g>
    <g id="patch_84">
     <path d="M 173.684063 572.864172 
L 195.684063 572.864172 
L 195.684063 565.164172 
L 173.684063 565.164172 
z
" style="fill:#c72e4c;stroke:#ffffff;stroke-linejoin:miter;"/>
    </g>
    <g id="text_21">
     <!-- Bacteria/Firmicutes/Bacilli/Staphylococcales/Staphylococcaceae -->
     <defs>
      <path d="M 54.890625 33.015625 
L 54.890625 0 
L 45.90625 0 
L 45.90625 32.71875 
Q 45.90625 40.484375 42.875 44.328125 
Q 39.84375 48.1875 33.796875 48.1875 
Q 26.515625 48.1875 22.3125 43.546875 
Q 18.109375 38.921875 18.109375 30.90625 
L 18.109375 0 
L 9.078125 0 
L 9.078125 75.984375 
L 18.109375 75.984375 
L 18.109375 46.1875 
Q 21.34375 51.125 25.703125 53.5625 
Q 30.078125 56 35.796875 56 
Q 45.21875 56 50.046875 50.171875 
Q 54.890625 44.34375 54.890625 33.015625 
z
" id="DejaVuSans-104"/>
     </defs>
     <g style="fill:#262626;" transform="translate(204.484063 572.864172)scale(0.11 -0.11)">
      <use xlink:href="#DejaVuSans-66"/>
      <use x="68.603516" xlink:href="#DejaVuSans-97"/>
      <use x="129.882812" xlink:href="#DejaVuSans-99"/>
      <use x="184.863281" xlink:href="#DejaVuSans-116"/>
      <use x="224.072266" xlink:href="#DejaVuSans-101"/>
      <use x="285.595703" xlink:href="#DejaVuSans-114"/>
      <use x="326.708984" xlink:href="#DejaVuSans-105"/>
      <use x="354.492188" xlink:href="#DejaVuSans-97"/>
      <use x="415.771484" xlink:href="#DejaVuSans-47"/>
      <use x="449.462891" xlink:href="#DejaVuSans-70"/>
      <use x="499.732422" xlink:href="#DejaVuSans-105"/>
      <use x="527.515625" xlink:href="#DejaVuSans-114"/>
      <use x="566.878906" xlink:href="#DejaVuSans-109"/>
      <use x="664.291016" xlink:href="#DejaVuSans-105"/>
      <use x="692.074219" xlink:href="#DejaVuSans-99"/>
      <use x="747.054688" xlink:href="#DejaVuSans-117"/>
      <use x="810.433594" xlink:href="#DejaVuSans-116"/>
      <use x="849.642578" xlink:href="#DejaVuSans-101"/>
      <use x="911.166016" xlink:href="#DejaVuSans-115"/>
      <use x="963.265625" xlink:href="#DejaVuSans-47"/>
      <use x="996.957031" xlink:href="#DejaVuSans-66"/>
      <use x="1065.560547" xlink:href="#DejaVuSans-97"/>
      <use x="1126.839844" xlink:href="#DejaVuSans-99"/>
      <use x="1181.820312" xlink:href="#DejaVuSans-105"/>
      <use x="1209.603516" xlink:href="#DejaVuSans-108"/>
      <use x="1237.386719" xlink:href="#DejaVuSans-108"/>
      <use x="1265.169922" xlink:href="#DejaVuSans-105"/>
      <use x="1292.953125" xlink:href="#DejaVuSans-47"/>
      <use x="1326.644531" xlink:href="#DejaVuSans-83"/>
      <use x="1390.121094" xlink:href="#DejaVuSans-116"/>
      <use x="1429.330078" xlink:href="#DejaVuSans-97"/>
      <use x="1490.609375" xlink:href="#DejaVuSans-112"/>
      <use x="1554.085938" xlink:href="#DejaVuSans-104"/>
      <use x="1617.464844" xlink:href="#DejaVuSans-121"/>
      <use x="1676.644531" xlink:href="#DejaVuSans-108"/>
      <use x="1704.427734" xlink:href="#DejaVuSans-111"/>
      <use x="1765.609375" xlink:href="#DejaVuSans-99"/>
      <use x="1820.589844" xlink:href="#DejaVuSans-111"/>
      <use x="1881.771484" xlink:href="#DejaVuSans-99"/>
      <use x="1936.751953" xlink:href="#DejaVuSans-99"/>
      <use x="1991.732422" xlink:href="#DejaVuSans-97"/>
      <use x="2053.011719" xlink:href="#DejaVuSans-108"/>
      <use x="2080.794922" xlink:href="#DejaVuSans-101"/>
      <use x="2142.318359" xlink:href="#DejaVuSans-115"/>
      <use x="2194.417969" xlink:href="#DejaVuSans-47"/>
      <use x="2228.109375" xlink:href="#DejaVuSans-83"/>
      <use x="2291.585938" xlink:href="#DejaVuSans-116"/>
      <use x="2330.794922" xlink:href="#DejaVuSans-97"/>
      <use x="2392.074219" xlink:href="#DejaVuSans-112"/>
      <use x="2455.550781" xlink:href="#DejaVuSans-104"/>
      <use x="2518.929688" xlink:href="#DejaVuSans-121"/>
      <use x="2578.109375" xlink:href="#DejaVuSans-108"/>
      <use x="2605.892578" xlink:href="#DejaVuSans-111"/>
      <use x="2667.074219" xlink:href="#DejaVuSans-99"/>
      <use x="2722.054688" xlink:href="#DejaVuSans-111"/>
      <use x="2783.236328" xlink:href="#DejaVuSans-99"/>
      <use x="2838.216797" xlink:href="#DejaVuSans-99"/>
      <use x="2893.197266" xlink:href="#DejaVuSans-97"/>
      <use x="2954.476562" xlink:href="#DejaVuSans-99"/>
      <use x="3009.457031" xlink:href="#DejaVuSans-101"/>
      <use x="3070.980469" xlink:href="#DejaVuSans-97"/>
      <use x="3132.259766" xlink:href="#DejaVuSans-101"/>
     </g>
    </g>
    <g id="patch_85">
     <path d="M 173.684063 589.010109 
L 195.684063 589.010109 
L 195.684063 581.310109 
L 173.684063 581.310109 
z
" style="fill:#0758d1;stroke:#ffffff;stroke-linejoin:miter;"/>
    </g>
    <g id="text_22">
     <!-- Bacteria/Proteobacteria/Gammaproteobacteria/Enterobacterales/Enterobacteriaceae -->
     <defs>
      <path d="M 19.671875 64.796875 
L 19.671875 37.40625 
L 32.078125 37.40625 
Q 38.96875 37.40625 42.71875 40.96875 
Q 46.484375 44.53125 46.484375 51.125 
Q 46.484375 57.671875 42.71875 61.234375 
Q 38.96875 64.796875 32.078125 64.796875 
z
M 9.8125 72.90625 
L 32.078125 72.90625 
Q 44.34375 72.90625 50.609375 67.359375 
Q 56.890625 61.8125 56.890625 51.125 
Q 56.890625 40.328125 50.609375 34.8125 
Q 44.34375 29.296875 32.078125 29.296875 
L 19.671875 29.296875 
L 19.671875 0 
L 9.8125 0 
z
" id="DejaVuSans-80"/>
      <path d="M 59.515625 10.40625 
L 59.515625 29.984375 
L 43.40625 29.984375 
L 43.40625 38.09375 
L 69.28125 38.09375 
L 69.28125 6.78125 
Q 63.578125 2.734375 56.6875 0.65625 
Q 49.8125 -1.421875 42 -1.421875 
Q 24.90625 -1.421875 15.25 8.5625 
Q 5.609375 18.5625 5.609375 36.375 
Q 5.609375 54.25 15.25 64.234375 
Q 24.90625 74.21875 42 74.21875 
Q 49.125 74.21875 55.546875 72.453125 
Q 61.96875 70.703125 67.390625 67.28125 
L 67.390625 56.78125 
Q 61.921875 61.421875 55.765625 63.765625 
Q 49.609375 66.109375 42.828125 66.109375 
Q 29.4375 66.109375 22.71875 58.640625 
Q 16.015625 51.171875 16.015625 36.375 
Q 16.015625 21.625 22.71875 14.15625 
Q 29.4375 6.6875 42.828125 6.6875 
Q 48.046875 6.6875 52.140625 7.59375 
Q 56.25 8.5 59.515625 10.40625 
z
" id="DejaVuSans-71"/>
     </defs>
     <g style="fill:#262626;" transform="translate(204.484063 589.010109)scale(0.11 -0.11)">
      <use xlink:href="#DejaVuSans-66"/>
      <use x="68.603516" xlink:href="#DejaVuSans-97"/>
      <use x="129.882812" xlink:href="#DejaVuSans-99"/>
      <use x="184.863281" xlink:href="#DejaVuSans-116"/>
      <use x="224.072266" xlink:href="#DejaVuSans-101"/>
      <use x="285.595703" xlink:href="#DejaVuSans-114"/>
      <use x="326.708984" xlink:href="#DejaVuSans-105"/>
      <use x="354.492188" xlink:href="#DejaVuSans-97"/>
      <use x="415.771484" xlink:href="#DejaVuSans-47"/>
      <use x="449.462891" xlink:href="#DejaVuSans-80"/>
      <use x="508.015625" xlink:href="#DejaVuSans-114"/>
      <use x="546.878906" xlink:href="#DejaVuSans-111"/>
      <use x="608.060547" xlink:href="#DejaVuSans-116"/>
      <use x="647.269531" xlink:href="#DejaVuSans-101"/>
      <use x="708.792969" xlink:href="#DejaVuSans-111"/>
      <use x="769.974609" xlink:href="#DejaVuSans-98"/>
      <use x="833.451172" xlink:href="#DejaVuSans-97"/>
      <use x="894.730469" xlink:href="#DejaVuSans-99"/>
      <use x="949.710938" xlink:href="#DejaVuSans-116"/>
      <use x="988.919922" xlink:href="#DejaVuSans-101"/>
      <use x="1050.443359" xlink:href="#DejaVuSans-114"/>
      <use x="1091.556641" xlink:href="#DejaVuSans-105"/>
      <use x="1119.339844" xlink:href="#DejaVuSans-97"/>
      <use x="1180.619141" xlink:href="#DejaVuSans-47"/>
      <use x="1214.310547" xlink:href="#DejaVuSans-71"/>
      <use x="1291.800781" xlink:href="#DejaVuSans-97"/>
      <use x="1353.080078" xlink:href="#DejaVuSans-109"/>
      <use x="1450.492188" xlink:href="#DejaVuSans-109"/>
      <use x="1547.904297" xlink:href="#DejaVuSans-97"/>
      <use x="1609.183594" xlink:href="#DejaVuSans-112"/>
      <use x="1672.660156" xlink:href="#DejaVuSans-114"/>
      <use x="1711.523438" xlink:href="#DejaVuSans-111"/>
      <use x="1772.705078" xlink:href="#DejaVuSans-116"/>
      <use x="1811.914062" xlink:href="#DejaVuSans-101"/>
      <use x="1873.4375" xlink:href="#DejaVuSans-111"/>
      <use x="1934.619141" xlink:href="#DejaVuSans-98"/>
      <use x="1998.095703" xlink:href="#DejaVuSans-97"/>
      <use x="2059.375" xlink:href="#DejaVuSans-99"/>
      <use x="2114.355469" xlink:href="#DejaVuSans-116"/>
      <use x="2153.564453" xlink:href="#DejaVuSans-101"/>
      <use x="2215.087891" xlink:href="#DejaVuSans-114"/>
      <use x="2256.201172" xlink:href="#DejaVuSans-105"/>
      <use x="2283.984375" xlink:href="#DejaVuSans-97"/>
      <use x="2345.263672" xlink:href="#DejaVuSans-47"/>
      <use x="2378.955078" xlink:href="#DejaVuSans-69"/>
      <use x="2442.138672" xlink:href="#DejaVuSans-110"/>
      <use x="2505.517578" xlink:href="#DejaVuSans-116"/>
      <use x="2544.726562" xlink:href="#DejaVuSans-101"/>
      <use x="2606.25" xlink:href="#DejaVuSans-114"/>
      <use x="2645.113281" xlink:href="#DejaVuSans-111"/>
      <use x="2706.294922" xlink:href="#DejaVuSans-98"/>
      <use x="2769.771484" xlink:href="#DejaVuSans-97"/>
      <use x="2831.050781" xlink:href="#DejaVuSans-99"/>
      <use x="2886.03125" xlink:href="#DejaVuSans-116"/>
      <use x="2925.240234" xlink:href="#DejaVuSans-101"/>
      <use x="2986.763672" xlink:href="#DejaVuSans-114"/>
      <use x="3027.876953" xlink:href="#DejaVuSans-97"/>
      <use x="3089.15625" xlink:href="#DejaVuSans-108"/>
      <use x="3116.939453" xlink:href="#DejaVuSans-101"/>
      <use x="3178.462891" xlink:href="#DejaVuSans-115"/>
      <use x="3230.5625" xlink:href="#DejaVuSans-47"/>
      <use x="3264.253906" xlink:href="#DejaVuSans-69"/>
      <use x="3327.4375" xlink:href="#DejaVuSans-110"/>
      <use x="3390.816406" xlink:href="#DejaVuSans-116"/>
      <use x="3430.025391" xlink:href="#DejaVuSans-101"/>
      <use x="3491.548828" xlink:href="#DejaVuSans-114"/>
      <use x="3530.412109" xlink:href="#DejaVuSans-111"/>
      <use x="3591.59375" xlink:href="#DejaVuSans-98"/>
      <use x="3655.070312" xlink:href="#DejaVuSans-97"/>
      <use x="3716.349609" xlink:href="#DejaVuSans-99"/>
      <use x="3771.330078" xlink:href="#DejaVuSans-116"/>
      <use x="3810.539062" xlink:href="#DejaVuSans-101"/>
      <use x="3872.0625" xlink:href="#DejaVuSans-114"/>
      <use x="3913.175781" xlink:href="#DejaVuSans-105"/>
      <use x="3940.958984" xlink:href="#DejaVuSans-97"/>
      <use x="4002.238281" xlink:href="#DejaVuSans-99"/>
      <use x="4057.21875" xlink:href="#DejaVuSans-101"/>
      <use x="4118.742188" xlink:href="#DejaVuSans-97"/>
      <use x="4180.021484" xlink:href="#DejaVuSans-101"/>
     </g>
    </g>
    <g id="patch_86">
     <path d="M 173.684063 605.156047 
L 195.684063 605.156047 
L 195.684063 597.456047 
L 173.684063 597.456047 
z
" style="fill:#f780f6;stroke:#ffffff;stroke-linejoin:miter;"/>
    </g>
    <g id="text_23">
     <!-- Bacteria/Proteobacteria/Gammaproteobacteria/Pseudomonadales/Pseudomonadaceae -->
     <g style="fill:#262626;" transform="translate(204.484063 605.156047)scale(0.11 -0.11)">
      <use xlink:href="#DejaVuSans-66"/>
      <use x="68.603516" xlink:href="#DejaVuSans-97"/>
      <use x="129.882812" xlink:href="#DejaVuSans-99"/>
      <use x="184.863281" xlink:href="#DejaVuSans-116"/>
      <use x="224.072266" xlink:href="#DejaVuSans-101"/>
      <use x="285.595703" xlink:href="#DejaVuSans-114"/>
      <use x="326.708984" xlink:href="#DejaVuSans-105"/>
      <use x="354.492188" xlink:href="#DejaVuSans-97"/>
      <use x="415.771484" xlink:href="#DejaVuSans-47"/>
      <use x="449.462891" xlink:href="#DejaVuSans-80"/>
      <use x="508.015625" xlink:href="#DejaVuSans-114"/>
      <use x="546.878906" xlink:href="#DejaVuSans-111"/>
      <use x="608.060547" xlink:href="#DejaVuSans-116"/>
      <use x="647.269531" xlink:href="#DejaVuSans-101"/>
      <use x="708.792969" xlink:href="#DejaVuSans-111"/>
      <use x="769.974609" xlink:href="#DejaVuSans-98"/>
      <use x="833.451172" xlink:href="#DejaVuSans-97"/>
      <use x="894.730469" xlink:href="#DejaVuSans-99"/>
      <use x="949.710938" xlink:href="#DejaVuSans-116"/>
      <use x="988.919922" xlink:href="#DejaVuSans-101"/>
      <use x="1050.443359" xlink:href="#DejaVuSans-114"/>
      <use x="1091.556641" xlink:href="#DejaVuSans-105"/>
      <use x="1119.339844" xlink:href="#DejaVuSans-97"/>
      <use x="1180.619141" xlink:href="#DejaVuSans-47"/>
      <use x="1214.310547" xlink:href="#DejaVuSans-71"/>
      <use x="1291.800781" xlink:href="#DejaVuSans-97"/>
      <use x="1353.080078" xlink:href="#DejaVuSans-109"/>
      <use x="1450.492188" xlink:href="#DejaVuSans-109"/>
      <use x="1547.904297" xlink:href="#DejaVuSans-97"/>
      <use x="1609.183594" xlink:href="#DejaVuSans-112"/>
      <use x="1672.660156" xlink:href="#DejaVuSans-114"/>
      <use x="1711.523438" xlink:href="#DejaVuSans-111"/>
      <use x="1772.705078" xlink:href="#DejaVuSans-116"/>
      <use x="1811.914062" xlink:href="#DejaVuSans-101"/>
      <use x="1873.4375" xlink:href="#DejaVuSans-111"/>
      <use x="1934.619141" xlink:href="#DejaVuSans-98"/>
      <use x="1998.095703" xlink:href="#DejaVuSans-97"/>
      <use x="2059.375" xlink:href="#DejaVuSans-99"/>
      <use x="2114.355469" xlink:href="#DejaVuSans-116"/>
      <use x="2153.564453" xlink:href="#DejaVuSans-101"/>
      <use x="2215.087891" xlink:href="#DejaVuSans-114"/>
      <use x="2256.201172" xlink:href="#DejaVuSans-105"/>
      <use x="2283.984375" xlink:href="#DejaVuSans-97"/>
      <use x="2345.263672" xlink:href="#DejaVuSans-47"/>
      <use x="2378.955078" xlink:href="#DejaVuSans-80"/>
      <use x="2437.507812" xlink:href="#DejaVuSans-115"/>
      <use x="2489.607422" xlink:href="#DejaVuSans-101"/>
      <use x="2551.130859" xlink:href="#DejaVuSans-117"/>
      <use x="2614.509766" xlink:href="#DejaVuSans-100"/>
      <use x="2677.986328" xlink:href="#DejaVuSans-111"/>
      <use x="2739.167969" xlink:href="#DejaVuSans-109"/>
      <use x="2836.580078" xlink:href="#DejaVuSans-111"/>
      <use x="2897.761719" xlink:href="#DejaVuSans-110"/>
      <use x="2961.140625" xlink:href="#DejaVuSans-97"/>
      <use x="3022.419922" xlink:href="#DejaVuSans-100"/>
      <use x="3085.896484" xlink:href="#DejaVuSans-97"/>
      <use x="3147.175781" xlink:href="#DejaVuSans-108"/>
      <use x="3174.958984" xlink:href="#DejaVuSans-101"/>
      <use x="3236.482422" xlink:href="#DejaVuSans-115"/>
      <use x="3288.582031" xlink:href="#DejaVuSans-47"/>
      <use x="3322.273438" xlink:href="#DejaVuSans-80"/>
      <use x="3380.826172" xlink:href="#DejaVuSans-115"/>
      <use x="3432.925781" xlink:href="#DejaVuSans-101"/>
      <use x="3494.449219" xlink:href="#DejaVuSans-117"/>
      <use x="3557.828125" xlink:href="#DejaVuSans-100"/>
      <use x="3621.304688" xlink:href="#DejaVuSans-111"/>
      <use x="3682.486328" xlink:href="#DejaVuSans-109"/>
      <use x="3779.898438" xlink:href="#DejaVuSans-111"/>
      <use x="3841.080078" xlink:href="#DejaVuSans-110"/>
      <use x="3904.458984" xlink:href="#DejaVuSans-97"/>
      <use x="3965.738281" xlink:href="#DejaVuSans-100"/>
      <use x="4029.214844" xlink:href="#DejaVuSans-97"/>
      <use x="4090.494141" xlink:href="#DejaVuSans-99"/>
      <use x="4145.474609" xlink:href="#DejaVuSans-101"/>
      <use x="4206.998047" xlink:href="#DejaVuSans-97"/>
      <use x="4268.277344" xlink:href="#DejaVuSans-101"/>
     </g>
    </g>
    <g id="patch_87">
     <path d="M 173.684063 621.301984 
L 195.684063 621.301984 
L 195.684063 613.601984 
L 173.684063 613.601984 
z
" style="stroke:#ffffff;stroke-linejoin:miter;"/>
    </g>
    <g id="text_24">
     <!-- Unassigned -->
     <defs>
      <path d="M 8.6875 72.90625 
L 18.609375 72.90625 
L 18.609375 28.609375 
Q 18.609375 16.890625 22.84375 11.734375 
Q 27.09375 6.59375 36.625 6.59375 
Q 46.09375 6.59375 50.34375 11.734375 
Q 54.59375 16.890625 54.59375 28.609375 
L 54.59375 72.90625 
L 64.5 72.90625 
L 64.5 27.390625 
Q 64.5 13.140625 57.4375 5.859375 
Q 50.390625 -1.421875 36.625 -1.421875 
Q 22.796875 -1.421875 15.734375 5.859375 
Q 8.6875 13.140625 8.6875 27.390625 
z
" id="DejaVuSans-85"/>
      <path d="M 45.40625 27.984375 
Q 45.40625 37.75 41.375 43.109375 
Q 37.359375 48.484375 30.078125 48.484375 
Q 22.859375 48.484375 18.828125 43.109375 
Q 14.796875 37.75 14.796875 27.984375 
Q 14.796875 18.265625 18.828125 12.890625 
Q 22.859375 7.515625 30.078125 7.515625 
Q 37.359375 7.515625 41.375 12.890625 
Q 45.40625 18.265625 45.40625 27.984375 
z
M 54.390625 6.78125 
Q 54.390625 -7.171875 48.1875 -13.984375 
Q 42 -20.796875 29.203125 -20.796875 
Q 24.46875 -20.796875 20.265625 -20.09375 
Q 16.0625 -19.390625 12.109375 -17.921875 
L 12.109375 -9.1875 
Q 16.0625 -11.328125 19.921875 -12.34375 
Q 23.78125 -13.375 27.78125 -13.375 
Q 36.625 -13.375 41.015625 -8.765625 
Q 45.40625 -4.15625 45.40625 5.171875 
L 45.40625 9.625 
Q 42.625 4.78125 38.28125 2.390625 
Q 33.9375 0 27.875 0 
Q 17.828125 0 11.671875 7.65625 
Q 5.515625 15.328125 5.515625 27.984375 
Q 5.515625 40.671875 11.671875 48.328125 
Q 17.828125 56 27.875 56 
Q 33.9375 56 38.28125 53.609375 
Q 42.625 51.21875 45.40625 46.390625 
L 45.40625 54.6875 
L 54.390625 54.6875 
z
" id="DejaVuSans-103"/>
     </defs>
     <g style="fill:#262626;" transform="translate(204.484063 621.301984)scale(0.11 -0.11)">
      <use xlink:href="#DejaVuSans-85"/>
      <use x="73.193359" xlink:href="#DejaVuSans-110"/>
      <use x="136.572266" xlink:href="#DejaVuSans-97"/>
      <use x="197.851562" xlink:href="#DejaVuSans-115"/>
      <use x="249.951172" xlink:href="#DejaVuSans-115"/>
      <use x="302.050781" xlink:href="#DejaVuSans-105"/>
      <use x="329.833984" xlink:href="#DejaVuSans-103"/>
      <use x="393.310547" xlink:href="#DejaVuSans-110"/>
      <use x="456.689453" xlink:href="#DejaVuSans-101"/>
      <use x="518.212891" xlink:href="#DejaVuSans-100"/>
     </g>
    </g>
   </g>
   <g id="legend_2">
    <g id="patch_88">
     <path d="M 826.59625 210.770641 
L 1002.85875 210.770641 
Q 1005.05875 210.770641 1005.05875 208.570641 
L 1005.05875 146.827641 
Q 1005.05875 144.627641 1002.85875 144.627641 
L 826.59625 144.627641 
Q 824.39625 144.627641 824.39625 146.827641 
L 824.39625 208.570641 
Q 824.39625 210.770641 826.59625 210.770641 
z
" style="fill:#eaeaf2;opacity:0.8;stroke:#cccccc;stroke-linejoin:miter;"/>
    </g>
    <g id="text_25">
     <!-- Number of reads per sample -->
     <defs>
      <path d="M 9.8125 72.90625 
L 23.09375 72.90625 
L 55.421875 11.921875 
L 55.421875 72.90625 
L 64.984375 72.90625 
L 64.984375 0 
L 51.703125 0 
L 19.390625 60.984375 
L 19.390625 0 
L 9.8125 0 
z
" id="DejaVuSans-78"/>
      <path id="DejaVuSans-32"/>
     </defs>
     <g style="fill:#262626;" transform="translate(828.79625 158.145766)scale(0.12 -0.12)">
      <use xlink:href="#DejaVuSans-78"/>
      <use x="74.804688" xlink:href="#DejaVuSans-117"/>
      <use x="138.183594" xlink:href="#DejaVuSans-109"/>
      <use x="235.595703" xlink:href="#DejaVuSans-98"/>
      <use x="299.072266" xlink:href="#DejaVuSans-101"/>
      <use x="360.595703" xlink:href="#DejaVuSans-114"/>
      <use x="401.708984" xlink:href="#DejaVuSans-32"/>
      <use x="433.496094" xlink:href="#DejaVuSans-111"/>
      <use x="494.677734" xlink:href="#DejaVuSans-102"/>
      <use x="529.882812" xlink:href="#DejaVuSans-32"/>
      <use x="561.669922" xlink:href="#DejaVuSans-114"/>
      <use x="600.533203" xlink:href="#DejaVuSans-101"/>
      <use x="662.056641" xlink:href="#DejaVuSans-97"/>
      <use x="723.335938" xlink:href="#DejaVuSans-100"/>
      <use x="786.8125" xlink:href="#DejaVuSans-115"/>
      <use x="838.912109" xlink:href="#DejaVuSans-32"/>
      <use x="870.699219" xlink:href="#DejaVuSans-112"/>
      <use x="934.175781" xlink:href="#DejaVuSans-101"/>
      <use x="995.699219" xlink:href="#DejaVuSans-114"/>
      <use x="1036.8125" xlink:href="#DejaVuSans-32"/>
      <use x="1068.599609" xlink:href="#DejaVuSans-115"/>
      <use x="1120.699219" xlink:href="#DejaVuSans-97"/>
      <use x="1181.978516" xlink:href="#DejaVuSans-109"/>
      <use x="1279.390625" xlink:href="#DejaVuSans-112"/>
      <use x="1342.867188" xlink:href="#DejaVuSans-108"/>
      <use x="1370.650391" xlink:href="#DejaVuSans-101"/>
     </g>
     <!--  -->
     <g style="fill:#262626;" transform="translate(828.79625 171.583141)scale(0.12 -0.12)"/>
    </g>
    <g id="patch_89">
     <path d="M 838.707187 187.937047 
L 860.707187 187.937047 
L 860.707187 180.237047 
L 838.707187 180.237047 
z
" style="stroke:#000000;stroke-linejoin:miter;"/>
    </g>
    <g id="text_26">
     <!-- More than 1000 reads -->
     <defs>
      <path d="M 9.8125 72.90625 
L 24.515625 72.90625 
L 43.109375 23.296875 
L 61.8125 72.90625 
L 76.515625 72.90625 
L 76.515625 0 
L 66.890625 0 
L 66.890625 64.015625 
L 48.09375 14.015625 
L 38.1875 14.015625 
L 19.390625 64.015625 
L 19.390625 0 
L 9.8125 0 
z
" id="DejaVuSans-77"/>
     </defs>
     <g style="fill:#262626;" transform="translate(869.507187 187.937047)scale(0.11 -0.11)">
      <use xlink:href="#DejaVuSans-77"/>
      <use x="86.279297" xlink:href="#DejaVuSans-111"/>
      <use x="147.460938" xlink:href="#DejaVuSans-114"/>
      <use x="186.324219" xlink:href="#DejaVuSans-101"/>
      <use x="247.847656" xlink:href="#DejaVuSans-32"/>
      <use x="279.634766" xlink:href="#DejaVuSans-116"/>
      <use x="318.84375" xlink:href="#DejaVuSans-104"/>
      <use x="382.222656" xlink:href="#DejaVuSans-97"/>
      <use x="443.501953" xlink:href="#DejaVuSans-110"/>
      <use x="506.880859" xlink:href="#DejaVuSans-32"/>
      <use x="538.667969" xlink:href="#DejaVuSans-49"/>
      <use x="602.291016" xlink:href="#DejaVuSans-48"/>
      <use x="665.914062" xlink:href="#DejaVuSans-48"/>
      <use x="729.537109" xlink:href="#DejaVuSans-48"/>
      <use x="793.160156" xlink:href="#DejaVuSans-32"/>
      <use x="824.947266" xlink:href="#DejaVuSans-114"/>
      <use x="863.810547" xlink:href="#DejaVuSans-101"/>
      <use x="925.333984" xlink:href="#DejaVuSans-97"/>
      <use x="986.613281" xlink:href="#DejaVuSans-100"/>
      <use x="1050.089844" xlink:href="#DejaVuSans-115"/>
     </g>
    </g>
    <g id="patch_90">
     <path d="M 838.707187 204.082984 
L 860.707187 204.082984 
L 860.707187 196.382984 
L 838.707187 196.382984 
z
" style="fill:#ff0000;stroke:#ff0000;stroke-linejoin:miter;"/>
    </g>
    <g id="text_27">
     <!-- Less than 1000 reads -->
     <g style="fill:#262626;" transform="translate(869.507187 204.082984)scale(0.11 -0.11)">
      <use xlink:href="#DejaVuSans-76"/>
      <use x="53.962891" xlink:href="#DejaVuSans-101"/>
      <use x="115.486328" xlink:href="#DejaVuSans-115"/>
      <use x="167.585938" xlink:href="#DejaVuSans-115"/>
      <use x="219.685547" xlink:href="#DejaVuSans-32"/>
      <use x="251.472656" xlink:href="#DejaVuSans-116"/>
      <use x="290.681641" xlink:href="#DejaVuSans-104"/>
      <use x="354.060547" xlink:href="#DejaVuSans-97"/>
      <use x="415.339844" xlink:href="#DejaVuSans-110"/>
      <use x="478.71875" xlink:href="#DejaVuSans-32"/>
      <use x="510.505859" xlink:href="#DejaVuSans-49"/>
      <use x="574.128906" xlink:href="#DejaVuSans-48"/>
      <use x="637.751953" xlink:href="#DejaVuSans-48"/>
      <use x="701.375" xlink:href="#DejaVuSans-48"/>
      <use x="764.998047" xlink:href="#DejaVuSans-32"/>
      <use x="796.785156" xlink:href="#DejaVuSans-114"/>
      <use x="835.648438" xlink:href="#DejaVuSans-101"/>
      <use x="897.171875" xlink:href="#DejaVuSans-97"/>
      <use x="958.451172" xlink:href="#DejaVuSans-100"/>
      <use x="1021.927734" xlink:href="#DejaVuSans-115"/>
     </g>
    </g>
   </g>
  </g>
 </g>
 <defs>
  <clipPath id="p8c1c07fa8f">
   <rect height="332.64" width="781.2" x="37.69625" y="11.379141"/>
  </clipPath>
 </defs>
</svg>
